EBGaramondVF-x001410.00_x00250.00_x00190.00_x003800.00_x004340.00_x002390.00_x005700.00.ufo
<glyph name="dollar" format="1">
  <advance width="460"/>
  <unicode hex="0024"/>
  <outline>
    <contour>
      <point x="178" y="-82" type="curve" smooth="yes"/>
      <point x="192" y="-82"/>
      <point x="208" y="-78"/>
      <point x="209" y="-67" type="curve" smooth="yes"/>
      <point x="219" y="13" type="line" smooth="yes"/>
      <point x="220" y="18"/>
      <point x="223" y="20"/>
      <point x="228" y="20" type="curve" smooth="yes"/>
      <point x="342" y="24"/>
      <point x="417" y="99"/>
      <point x="417" y="205" type="curve" smooth="yes"/>
      <point x="417" y="298"/>
      <point x="346" y="345"/>
      <point x="279" y="381" type="curve"/>
      <point x="265" y="390"/>
      <point x="266" y="392"/>
      <point x="267" y="401" type="curve" smooth="yes"/>
      <point x="290" y="594" type="line"/>
      <point x="290" y="596"/>
      <point x="292" y="599"/>
      <point x="294" y="599" type="curve" smooth="yes"/>
      <point x="327" y="592"/>
      <point x="348" y="560"/>
      <point x="365" y="520" type="curve" smooth="yes"/>
      <point x="369" y="510"/>
      <point x="382" y="504"/>
      <point x="395" y="504" type="curve" smooth="yes"/>
      <point x="402" y="504"/>
      <point x="410" y="507"/>
      <point x="410" y="516" type="curve" smooth="yes"/>
      <point x="410" y="543"/>
      <point x="399" y="584"/>
      <point x="391" y="611" type="curve" smooth="yes"/>
      <point x="388" y="620"/>
      <point x="381" y="631"/>
      <point x="370" y="634" type="curve" smooth="yes"/>
      <point x="354" y="640"/>
      <point x="334" y="647"/>
      <point x="307" y="653" type="curve" smooth="yes"/>
      <point x="302" y="654"/>
      <point x="301" y="657"/>
      <point x="301" y="660" type="curve" smooth="yes"/>
      <point x="301" y="670"/>
      <point x="307" y="711"/>
      <point x="308" y="722" type="curve"/>
      <point x="308" y="729"/>
      <point x="302" y="737"/>
      <point x="295" y="737" type="curve" smooth="yes"/>
      <point x="282" y="737"/>
      <point x="255" y="734"/>
      <point x="253" y="721" type="curve" smooth="yes"/>
      <point x="246" y="662" type="line" smooth="yes"/>
      <point x="245" y="659"/>
      <point x="242" y="656"/>
      <point x="236" y="656" type="curve" smooth="yes"/>
      <point x="121" y="651"/>
      <point x="58" y="572"/>
      <point x="58" y="483" type="curve" smooth="yes"/>
      <point x="58" y="403"/>
      <point x="123" y="358"/>
      <point x="190" y="322" type="curve" smooth="yes"/>
      <point x="202" y="315"/>
      <point x="203" y="310"/>
      <point x="202" y="305" type="curve" smooth="yes"/>
      <point x="175" y="79" type="line" smooth="yes"/>
      <point x="175" y="75"/>
      <point x="170" y="75"/>
      <point x="165" y="77" type="curve"/>
      <point x="127" y="91"/>
      <point x="100" y="116"/>
      <point x="79" y="181" type="curve" smooth="yes"/>
      <point x="77" y="189"/>
      <point x="70" y="193"/>
      <point x="61" y="193" type="curve" smooth="yes"/>
      <point x="49" y="193"/>
      <point x="41" y="187"/>
      <point x="41" y="178" type="curve"/>
      <point x="43" y="153"/>
      <point x="43" y="109"/>
      <point x="50" y="83" type="curve" smooth="yes"/>
      <point x="52" y="76"/>
      <point x="58" y="70"/>
      <point x="63" y="65" type="curve" smooth="yes"/>
      <point x="91" y="42"/>
      <point x="128" y="27"/>
      <point x="161" y="22" type="curve" smooth="yes"/>
      <point x="164" y="21"/>
      <point x="169" y="18"/>
      <point x="168" y="12" type="curve"/>
      <point x="159" y="-61" type="line" smooth="yes"/>
      <point x="157" y="-75"/>
      <point x="167" y="-82"/>
    </contour>
    <contour>
      <point x="236" y="69" type="curve"/>
      <point x="230" y="69"/>
      <point x="228" y="71"/>
      <point x="228" y="78" type="curve"/>
      <point x="253" y="281" type="line" smooth="yes"/>
      <point x="253" y="284"/>
      <point x="256" y="288"/>
      <point x="260" y="286" type="curve"/>
      <point x="306" y="262"/>
      <point x="333" y="232"/>
      <point x="333" y="175" type="curve" smooth="yes"/>
      <point x="333" y="110"/>
      <point x="290" y="72"/>
    </contour>
    <contour>
      <point x="208" y="424" type="curve"/>
      <point x="166" y="450"/>
      <point x="143" y="476"/>
      <point x="143" y="514" type="curve" smooth="yes"/>
      <point x="143" y="577"/>
      <point x="184" y="602"/>
      <point x="230" y="605" type="curve"/>
      <point x="235" y="605"/>
      <point x="237" y="602"/>
      <point x="237" y="597" type="curve"/>
      <point x="217" y="425" type="line"/>
      <point x="217" y="423"/>
      <point x="216" y="420"/>
    </contour>
  </outline>
</glyph>
<glyph name="parenleft" format="1">
  <advance width="324"/>
  <unicode hex="0028"/>
  <outline>
    <contour>
      <point x="246" y="-214" type="curve" smooth="yes"/>
      <point x="260" y="-214"/>
      <point x="278" y="-205"/>
      <point x="278" y="-191" type="curve" smooth="yes"/>
      <point x="278" y="-185"/>
      <point x="263" y="-170"/>
      <point x="258" y="-164" type="curve" smooth="yes"/>
      <point x="198" y="-95"/>
      <point x="127" y="111"/>
      <point x="127" y="281" type="curve" smooth="yes"/>
      <point x="127" y="446"/>
      <point x="197" y="590"/>
      <point x="260" y="659" type="curve" smooth="yes"/>
      <point x="265" y="665"/>
      <point x="278" y="679"/>
      <point x="278" y="685" type="curve" smooth="yes"/>
      <point x="278" y="696"/>
      <point x="260" y="705"/>
      <point x="250" y="705" type="curve" smooth="yes"/>
      <point x="240" y="705"/>
      <point x="226" y="699"/>
      <point x="219" y="691" type="curve" smooth="yes"/>
      <point x="148" y="623"/>
      <point x="40" y="439"/>
      <point x="40" y="269" type="curve" smooth="yes"/>
      <point x="40" y="99"/>
      <point x="150" y="-130"/>
      <point x="221" y="-202" type="curve" smooth="yes"/>
      <point x="228" y="-209"/>
      <point x="239" y="-214"/>
    </contour>
  </outline>
</glyph>
<glyph name="asterisk" format="1">
  <advance width="349"/>
  <unicode hex="002A"/>
  <outline>
    <contour>
      <point x="188" y="372" type="curve" smooth="yes"/>
      <point x="200" y="372"/>
      <point x="208" y="383"/>
      <point x="207" y="395" type="curve"/>
      <point x="205" y="429"/>
      <point x="203" y="459"/>
      <point x="200" y="486" type="curve"/>
      <point x="227" y="475"/>
      <point x="255" y="464"/>
      <point x="288" y="451" type="curve" smooth="yes"/>
      <point x="297" y="448"/>
      <point x="315" y="451"/>
      <point x="315" y="465" type="curve" smooth="yes"/>
      <point x="315" y="473"/>
      <point x="310" y="481"/>
      <point x="303" y="484" type="curve"/>
      <point x="272" y="501"/>
      <point x="244" y="513"/>
      <point x="218" y="525" type="curve"/>
      <point x="294" y="581" type="line"/>
      <point x="299" y="586"/>
      <point x="303" y="594"/>
      <point x="303" y="600" type="curve" smooth="yes"/>
      <point x="303" y="610"/>
      <point x="292" y="615"/>
      <point x="284" y="615" type="curve" smooth="yes"/>
      <point x="279" y="615"/>
      <point x="273" y="613"/>
      <point x="269" y="610" type="curve"/>
      <point x="239" y="592"/>
      <point x="215" y="576"/>
      <point x="191" y="560" type="curve"/>
      <point x="180" y="650" type="line" smooth="yes"/>
      <point x="179" y="660"/>
      <point x="171" y="670"/>
      <point x="161" y="670" type="curve" smooth="yes"/>
      <point x="149" y="670"/>
      <point x="141" y="659"/>
      <point x="142" y="644" type="curve" smooth="yes"/>
      <point x="144" y="612"/>
      <point x="146" y="583"/>
      <point x="150" y="555" type="curve"/>
      <point x="122" y="567"/>
      <point x="92" y="578"/>
      <point x="62" y="590" type="curve"/>
      <point x="52" y="594"/>
      <point x="35" y="591"/>
      <point x="35" y="577" type="curve" smooth="yes"/>
      <point x="35" y="570"/>
      <point x="38" y="560"/>
      <point x="48" y="556" type="curve"/>
      <point x="78" y="540"/>
      <point x="105" y="529"/>
      <point x="131" y="517" type="curve"/>
      <point x="56" y="461" type="line"/>
      <point x="50" y="456"/>
      <point x="47" y="449"/>
      <point x="47" y="442" type="curve" smooth="yes"/>
      <point x="47" y="432"/>
      <point x="57" y="428"/>
      <point x="65" y="428" type="curve" smooth="yes"/>
      <point x="70" y="428"/>
      <point x="77" y="429"/>
      <point x="80" y="432" type="curve"/>
      <point x="110" y="450"/>
      <point x="134" y="466"/>
      <point x="158" y="481" type="curve"/>
      <point x="169" y="390" type="line" smooth="yes"/>
      <point x="170" y="381"/>
      <point x="179" y="372"/>
    </contour>
  </outline>
</glyph>
<glyph name="comma" format="1">
  <advance width="233"/>
  <unicode hex="002C"/>
  <outline>
    <contour>
      <point x="39" y="-147" type="curve" smooth="yes"/>
      <point x="91" y="-147"/>
      <point x="185" y="-80"/>
      <point x="185" y="21" type="curve" smooth="yes"/>
      <point x="185" y="78"/>
      <point x="149" y="119"/>
      <point x="101" y="119" type="curve" smooth="yes"/>
      <point x="71" y="119"/>
      <point x="45" y="100"/>
      <point x="45" y="72" type="curve" smooth="yes"/>
      <point x="45" y="49"/>
      <point x="63" y="32"/>
      <point x="92" y="29" type="curve" smooth="yes"/>
      <point x="114" y="26"/>
      <point x="131" y="1"/>
      <point x="131" y="-15" type="curve" smooth="yes"/>
      <point x="131" y="-85"/>
      <point x="78" y="-115"/>
      <point x="35" y="-124" type="curve" smooth="yes"/>
      <point x="26" y="-126"/>
      <point x="21" y="-131"/>
      <point x="21" y="-136" type="curve" smooth="yes"/>
      <point x="21" y="-142"/>
      <point x="27" y="-147"/>
    </contour>
  </outline>
</glyph>
<glyph name="hyphen" format="1">
  <advance width="281"/>
  <unicode hex="002D"/>
  <outline>
    <contour>
      <point x="36" y="165" type="curve"/>
      <point x="106" y="171"/>
      <point x="168" y="181"/>
      <point x="230" y="190" type="curve" smooth="yes"/>
      <point x="246" y="192"/>
      <point x="251" y="223"/>
      <point x="251" y="248" type="curve" smooth="yes"/>
      <point x="251" y="252"/>
      <point x="247" y="254"/>
      <point x="243" y="254" type="curve"/>
      <point x="177" y="247"/>
      <point x="112" y="238"/>
      <point x="46" y="229" type="curve"/>
      <point x="36" y="228"/>
      <point x="30" y="193"/>
      <point x="30" y="171" type="curve" smooth="yes"/>
      <point x="30" y="167"/>
      <point x="31" y="165"/>
    </contour>
  </outline>
</glyph>
<glyph name="three" format="1">
  <advance width="512"/>
  <unicode hex="0033"/>
  <outline>
    <contour>
      <point x="173" y="-38" type="curve" smooth="yes"/>
      <point x="315" y="-38"/>
      <point x="465" y="56"/>
      <point x="465" y="212" type="curve" smooth="yes"/>
      <point x="465" y="302"/>
      <point x="395" y="371"/>
      <point x="311" y="372" type="curve" smooth="yes"/>
      <point x="306" y="372"/>
      <point x="306" y="376"/>
      <point x="310" y="378" type="curve"/>
      <point x="388" y="425"/>
      <point x="415" y="484"/>
      <point x="415" y="536" type="curve" smooth="yes"/>
      <point x="415" y="606"/>
      <point x="347" y="654"/>
      <point x="278" y="654" type="curve" smooth="yes"/>
      <point x="133" y="654"/>
      <point x="74" y="558"/>
      <point x="74" y="523" type="curve" smooth="yes"/>
      <point x="74" y="513"/>
      <point x="86" y="495"/>
      <point x="101" y="495" type="curve" smooth="yes"/>
      <point x="116" y="495"/>
      <point x="139" y="590"/>
      <point x="233" y="590" type="curve" smooth="yes"/>
      <point x="287" y="590"/>
      <point x="325" y="547"/>
      <point x="325" y="491" type="curve" smooth="yes"/>
      <point x="325" y="418"/>
      <point x="238" y="367"/>
      <point x="196" y="348" type="curve" smooth="yes"/>
      <point x="181" y="341"/>
      <point x="167" y="330"/>
      <point x="164" y="307" type="curve" smooth="yes"/>
      <point x="163" y="297"/>
      <point x="175" y="289"/>
      <point x="182" y="293" type="curve" smooth="yes"/>
      <point x="206" y="306"/>
      <point x="234" y="308"/>
      <point x="250" y="308" type="curve" smooth="yes"/>
      <point x="330" y="308"/>
      <point x="370" y="229"/>
      <point x="370" y="154" type="curve" smooth="yes"/>
      <point x="370" y="74"/>
      <point x="294" y="11"/>
      <point x="219" y="11" type="curve" smooth="yes"/>
      <point x="180" y="11"/>
      <point x="158" y="27"/>
      <point x="141" y="41" type="curve" smooth="yes"/>
      <point x="127" y="51"/>
      <point x="116" y="61"/>
      <point x="101" y="61" type="curve" smooth="yes"/>
      <point x="84" y="61"/>
      <point x="56" y="28"/>
      <point x="56" y="13" type="curve" smooth="yes"/>
      <point x="56" y="-14"/>
      <point x="123" y="-38"/>
    </contour>
  </outline>
</glyph>
<glyph name="seven" format="1">
  <advance width="512"/>
  <unicode hex="0037"/>
  <outline>
    <contour>
      <point x="124" y="-32" type="curve" smooth="yes"/>
      <point x="129" y="-32"/>
      <point x="138" y="-15"/>
      <point x="145" y="-4" type="curve" smooth="yes"/>
      <point x="459" y="560" type="line" smooth="yes"/>
      <point x="469" y="577"/>
      <point x="498" y="616"/>
      <point x="498" y="632" type="curve" smooth="yes"/>
      <point x="498" y="638"/>
      <point x="495" y="646"/>
      <point x="492" y="646" type="curve" smooth="yes"/>
      <point x="472" y="643"/>
      <point x="353" y="641"/>
      <point x="246" y="641" type="curve" smooth="yes"/>
      <point x="198" y="641"/>
      <point x="175" y="642"/>
      <point x="144" y="642" type="curve" smooth="yes"/>
      <point x="101" y="642"/>
      <point x="60" y="651"/>
      <point x="57" y="651" type="curve" smooth="yes"/>
      <point x="54" y="651"/>
      <point x="47" y="649"/>
      <point x="46" y="639" type="curve" smooth="yes"/>
      <point x="43" y="612"/>
      <point x="37" y="568"/>
      <point x="29" y="536" type="curve"/>
      <point x="28" y="530"/>
      <point x="25" y="519"/>
      <point x="25" y="511" type="curve" smooth="yes"/>
      <point x="25" y="506"/>
      <point x="26" y="496"/>
      <point x="32" y="496" type="curve" smooth="yes"/>
      <point x="43" y="496"/>
      <point x="53" y="514"/>
      <point x="57" y="522" type="curve" smooth="yes"/>
      <point x="79" y="560"/>
      <point x="102" y="568"/>
      <point x="134" y="568" type="curve" smooth="yes"/>
      <point x="437" y="568" type="line"/>
      <point x="433" y="612" type="line"/>
      <point x="122" y="52" type="line" smooth="yes"/>
      <point x="110" y="31"/>
      <point x="97" y="8"/>
      <point x="97" y="2" type="curve" smooth="yes"/>
      <point x="97" y="-18"/>
      <point x="105" y="-32"/>
    </contour>
  </outline>
</glyph>
<glyph name="eight" format="1">
  <advance width="512"/>
  <unicode hex="0038"/>
  <outline>
    <contour>
      <point x="245" y="-14" type="curve" smooth="yes"/>
      <point x="350" y="-14"/>
      <point x="455" y="63"/>
      <point x="455" y="171" type="curve" smooth="yes"/>
      <point x="455" y="250"/>
      <point x="400" y="300"/>
      <point x="328" y="345" type="curve" smooth="yes"/>
      <point x="317" y="352"/>
      <point x="316" y="355"/>
      <point x="334" y="367" type="curve" smooth="yes"/>
      <point x="357" y="383"/>
      <point x="369" y="394"/>
      <point x="383" y="405" type="curve" smooth="yes"/>
      <point x="408" y="426"/>
      <point x="436" y="460"/>
      <point x="436" y="515" type="curve" smooth="yes"/>
      <point x="436" y="599"/>
      <point x="352" y="654"/>
      <point x="267" y="654" type="curve" smooth="yes"/>
      <point x="172" y="654"/>
      <point x="73" y="588"/>
      <point x="73" y="508" type="curve" smooth="yes"/>
      <point x="73" y="419"/>
      <point x="128" y="386"/>
      <point x="188" y="332" type="curve" smooth="yes"/>
      <point x="197" y="325"/>
      <point x="201" y="324"/>
      <point x="191" y="319" type="curve" smooth="yes"/>
      <point x="141" y="289"/>
      <point x="57" y="241"/>
      <point x="57" y="147" type="curve" smooth="yes"/>
      <point x="57" y="51"/>
      <point x="148" y="-14"/>
    </contour>
    <contour>
      <point x="260" y="31" type="curve" smooth="yes"/>
      <point x="186" y="31"/>
      <point x="142" y="104"/>
      <point x="142" y="168" type="curve" smooth="yes"/>
      <point x="142" y="226"/>
      <point x="169" y="254"/>
      <point x="217" y="289" type="curve" smooth="yes"/>
      <point x="222" y="293"/>
      <point x="226" y="295"/>
      <point x="229" y="295" type="curve" smooth="yes"/>
      <point x="236" y="295"/>
      <point x="242" y="291"/>
      <point x="250" y="286" type="curve"/>
      <point x="302" y="252"/>
      <point x="366" y="196"/>
      <point x="366" y="136" type="curve" smooth="yes"/>
      <point x="366" y="80"/>
      <point x="321" y="31"/>
    </contour>
    <contour>
      <point x="288" y="379" type="curve"/>
      <point x="284" y="376"/>
      <point x="278" y="379"/>
      <point x="274" y="382" type="curve"/>
      <point x="206" y="432"/>
      <point x="158" y="457"/>
      <point x="158" y="521" type="curve" smooth="yes"/>
      <point x="157" y="571"/>
      <point x="204" y="610"/>
      <point x="261" y="610" type="curve" smooth="yes"/>
      <point x="321" y="610"/>
      <point x="355" y="565"/>
      <point x="355" y="513" type="curve" smooth="yes"/>
      <point x="355" y="459"/>
      <point x="338" y="413"/>
    </contour>
  </outline>
</glyph>
<glyph name="less" format="1">
  <advance width="560"/>
  <unicode hex="003C"/>
  <outline>
    <contour>
      <point x="484" y="17" type="line" smooth="yes"/>
      <point x="492" y="13"/>
      <point x="507" y="12"/>
      <point x="507" y="27" type="curve" smooth="yes"/>
      <point x="507" y="37"/>
      <point x="502" y="72"/>
      <point x="480" y="82" type="curve" smooth="yes"/>
      <point x="146" y="250" type="line"/>
      <point x="142" y="251"/>
      <point x="141" y="255"/>
      <point x="145" y="256" type="curve"/>
      <point x="470" y="421" type="line" smooth="yes"/>
      <point x="493" y="433"/>
      <point x="506" y="466"/>
      <point x="506" y="480" type="curve" smooth="yes"/>
      <point x="506" y="487"/>
      <point x="503" y="492"/>
      <point x="496" y="492" type="curve" smooth="yes"/>
      <point x="494" y="492"/>
      <point x="490" y="490"/>
      <point x="486" y="488" type="curve" smooth="yes"/>
      <point x="91" y="295" type="line" smooth="yes"/>
      <point x="68" y="283"/>
      <point x="53" y="252"/>
      <point x="53" y="241" type="curve" smooth="yes"/>
      <point x="53" y="234"/>
      <point x="81" y="219"/>
      <point x="101" y="210" type="curve" smooth="yes"/>
    </contour>
  </outline>
</glyph>
<glyph name="equal" format="1">
  <advance width="566"/>
  <unicode hex="003D"/>
  <outline>
    <contour>
      <point x="64" y="325" type="curve" smooth="yes"/>
      <point x="484" y="325" type="line" smooth="yes"/>
      <point x="501" y="325"/>
      <point x="516" y="352"/>
      <point x="516" y="369" type="curve" smooth="yes"/>
      <point x="516" y="376"/>
      <point x="508" y="382"/>
      <point x="502" y="382" type="curve" smooth="yes"/>
      <point x="74" y="382" type="line" smooth="yes"/>
      <point x="56" y="382"/>
      <point x="50" y="349"/>
      <point x="50" y="339" type="curve" smooth="yes"/>
      <point x="50" y="332"/>
      <point x="57" y="325"/>
    </contour>
    <contour>
      <point x="64" y="153" type="curve" smooth="yes"/>
      <point x="484" y="153" type="line" smooth="yes"/>
      <point x="501" y="153"/>
      <point x="516" y="178"/>
      <point x="516" y="198" type="curve" smooth="yes"/>
      <point x="516" y="205"/>
      <point x="508" y="210"/>
      <point x="502" y="210" type="curve" smooth="yes"/>
      <point x="74" y="210" type="line" smooth="yes"/>
      <point x="56" y="210"/>
      <point x="50" y="178"/>
      <point x="50" y="167" type="curve" smooth="yes"/>
      <point x="50" y="160"/>
      <point x="57" y="153"/>
    </contour>
  </outline>
</glyph>
<glyph name="question" format="1">
  <advance width="389"/>
  <unicode hex="003F"/>
  <outline>
    <contour>
      <point x="141" y="180" type="curve" smooth="yes"/>
      <point x="154" y="180"/>
      <point x="162" y="193"/>
      <point x="162" y="203" type="curve" smooth="yes"/>
      <point x="163" y="234"/>
      <point x="166" y="263"/>
      <point x="194" y="282" type="curve" smooth="yes"/>
      <point x="226" y="302"/>
      <point x="237" y="308"/>
      <point x="280" y="332" type="curve" smooth="yes"/>
      <point x="300" y="343"/>
      <point x="322" y="367"/>
      <point x="322" y="416" type="curve" smooth="yes"/>
      <point x="322" y="468"/>
      <point x="284" y="554"/>
      <point x="226" y="611" type="curve" smooth="yes"/>
      <point x="192" y="644"/>
      <point x="148" y="661"/>
      <point x="114" y="661" type="curve" smooth="yes"/>
      <point x="96" y="661"/>
      <point x="73" y="643"/>
      <point x="73" y="624" type="curve" smooth="yes"/>
      <point x="73" y="596"/>
      <point x="94" y="566"/>
      <point x="116" y="566" type="curve" smooth="yes"/>
      <point x="125" y="566"/>
      <point x="132" y="567"/>
      <point x="138" y="568" type="curve" smooth="yes"/>
      <point x="145" y="569"/>
      <point x="152" y="570"/>
      <point x="160" y="570" type="curve" smooth="yes"/>
      <point x="226" y="569"/>
      <point x="260" y="522"/>
      <point x="260" y="456" type="curve" smooth="yes"/>
      <point x="260" y="428"/>
      <point x="227" y="400"/>
      <point x="200" y="387" type="curve" smooth="yes"/>
      <point x="140" y="358"/>
      <point x="100" y="332"/>
      <point x="100" y="297" type="curve" smooth="yes"/>
      <point x="100" y="252"/>
      <point x="107" y="231"/>
      <point x="113" y="209" type="curve" smooth="yes"/>
      <point x="117" y="193"/>
      <point x="131" y="180"/>
    </contour>
    <contour>
      <point x="154" y="-14" type="curve" smooth="yes"/>
      <point x="188" y="-14"/>
      <point x="216" y="12"/>
      <point x="216" y="45" type="curve" smooth="yes"/>
      <point x="216" y="79"/>
      <point x="189" y="105"/>
      <point x="154" y="106" type="curve" smooth="yes"/>
      <point x="120" y="106"/>
      <point x="92" y="79"/>
      <point x="92" y="46" type="curve" smooth="yes"/>
      <point x="92" y="13"/>
      <point x="119" y="-14"/>
    </contour>
  </outline>
</glyph>
<glyph name="at" format="1">
  <advance width="781"/>
  <unicode hex="0040"/>
  <outline>
    <contour>
      <point x="399" y="-135" type="curve" smooth="yes"/>
      <point x="523" y="-135"/>
      <point x="664" y="-52"/>
      <point x="664" y="-21" type="curve" smooth="yes"/>
      <point x="664" y="-7"/>
      <point x="657" y="0"/>
      <point x="642" y="0" type="curve" smooth="yes"/>
      <point x="635" y="0"/>
      <point x="624" y="-8"/>
      <point x="613" y="-15" type="curve" smooth="yes"/>
      <point x="559" y="-54"/>
      <point x="472" y="-85"/>
      <point x="409" y="-85" type="curve" smooth="yes"/>
      <point x="244" y="-85"/>
      <point x="105" y="34"/>
      <point x="105" y="191" type="curve" smooth="yes"/>
      <point x="105" y="355"/>
      <point x="249" y="461"/>
      <point x="411" y="461" type="curve" smooth="yes"/>
      <point x="556" y="461"/>
      <point x="677" y="357"/>
      <point x="677" y="219" type="curve" smooth="yes"/>
      <point x="677" y="137"/>
      <point x="616" y="92"/>
      <point x="553" y="92" type="curve" smooth="yes"/>
      <point x="532" y="92"/>
      <point x="528" y="106"/>
      <point x="528" y="121" type="curve" smooth="yes"/>
      <point x="528" y="130"/>
      <point x="530" y="139"/>
      <point x="531" y="148" type="curve"/>
      <point x="551" y="272" type="line" smooth="yes"/>
      <point x="554" y="288"/>
      <point x="564" y="328"/>
      <point x="573" y="352" type="curve"/>
      <point x="576" y="356"/>
      <point x="556" y="360"/>
      <point x="552" y="360" type="curve" smooth="yes"/>
      <point x="540" y="360"/>
      <point x="534" y="341"/>
      <point x="522" y="341" type="curve" smooth="yes"/>
      <point x="518" y="341"/>
      <point x="514" y="342"/>
      <point x="498" y="347" type="curve" smooth="yes"/>
      <point x="486" y="351"/>
      <point x="451" y="355"/>
      <point x="430" y="355" type="curve" smooth="yes"/>
      <point x="315" y="355"/>
      <point x="210" y="277"/>
      <point x="210" y="156" type="curve" smooth="yes"/>
      <point x="210" y="86"/>
      <point x="265" y="47"/>
      <point x="335" y="47" type="curve" smooth="yes"/>
      <point x="401" y="47"/>
      <point x="447" y="84"/>
      <point x="458" y="84" type="curve" smooth="yes"/>
      <point x="469" y="84"/>
      <point x="472" y="47"/>
      <point x="521" y="45" type="curve" smooth="yes"/>
      <point x="631" y="45"/>
      <point x="735" y="117"/>
      <point x="735" y="236" type="curve" smooth="yes"/>
      <point x="735" y="387"/>
      <point x="591" y="511"/>
      <point x="433" y="511" type="curve" smooth="yes"/>
      <point x="230" y="511"/>
      <point x="46" y="398"/>
      <point x="46" y="181" type="curve" smooth="yes"/>
      <point x="46" y="-6"/>
      <point x="210" y="-135"/>
    </contour>
    <contour>
      <point x="374" y="89" type="curve" smooth="yes"/>
      <point x="334" y="89"/>
      <point x="288" y="109"/>
      <point x="288" y="176" type="curve" smooth="yes"/>
      <point x="288" y="266"/>
      <point x="350" y="314"/>
      <point x="409" y="314" type="curve" smooth="yes"/>
      <point x="454" y="314"/>
      <point x="481" y="295"/>
      <point x="481" y="261" type="curve" smooth="yes"/>
      <point x="481" y="257"/>
      <point x="481" y="253"/>
      <point x="480" y="250" type="curve"/>
      <point x="464" y="155" type="line" smooth="yes"/>
      <point x="458" y="126"/>
      <point x="448" y="116"/>
      <point x="436" y="109" type="curve" smooth="yes"/>
      <point x="415" y="97"/>
      <point x="399" y="89"/>
    </contour>
  </outline>
</glyph>
<glyph name="A" format="1">
  <advance width="720"/>
  <unicode hex="0041"/>
  <outline>
    <contour>
      <point x="27" y="-5" type="curve" smooth="yes"/>
      <point x="61" y="-5"/>
      <point x="105" y="3"/>
      <point x="150" y="3" type="curve" smooth="yes"/>
      <point x="187" y="3"/>
      <point x="224" y="0"/>
      <point x="242" y="0" type="curve" smooth="yes"/>
      <point x="260" y="0"/>
      <point x="272" y="4"/>
      <point x="272" y="15" type="curve" smooth="yes"/>
      <point x="272" y="27"/>
      <point x="263" y="34"/>
      <point x="241" y="42" type="curve" smooth="yes"/>
      <point x="212" y="51"/>
      <point x="189" y="69"/>
      <point x="189" y="98" type="curve" smooth="yes"/>
      <point x="189" y="111"/>
      <point x="218" y="206"/>
      <point x="227" y="233" type="curve" smooth="yes"/>
      <point x="232" y="248"/>
      <point x="238" y="252"/>
      <point x="244" y="252" type="curve" smooth="yes"/>
      <point x="437" y="252" type="line" smooth="yes"/>
      <point x="456" y="252"/>
      <point x="462" y="251"/>
      <point x="465" y="241" type="curve" smooth="yes"/>
      <point x="480" y="189"/>
      <point x="501" y="118"/>
      <point x="501" y="87" type="curve" smooth="yes"/>
      <point x="501" y="66"/>
      <point x="484" y="51"/>
      <point x="442" y="43" type="curve" smooth="yes"/>
      <point x="423" y="40"/>
      <point x="408" y="30"/>
      <point x="408" y="18" type="curve" smooth="yes"/>
      <point x="408" y="7"/>
      <point x="421" y="2"/>
      <point x="439" y="2" type="curve" smooth="yes"/>
      <point x="464" y="2"/>
      <point x="508" y="3"/>
      <point x="549" y="3" type="curve" smooth="yes"/>
      <point x="596" y="3"/>
      <point x="665" y="-5"/>
      <point x="694" y="-5" type="curve" smooth="yes"/>
      <point x="712" y="-5"/>
      <point x="725" y="-2"/>
      <point x="725" y="8" type="curve" smooth="yes"/>
      <point x="725" y="21"/>
      <point x="715" y="34"/>
      <point x="689" y="39" type="curve" smooth="yes"/>
      <point x="649" y="47"/>
      <point x="614" y="59"/>
      <point x="585" y="140" type="curve" smooth="yes"/>
      <point x="551" y="238"/>
      <point x="471" y="477"/>
      <point x="406" y="686" type="curve" smooth="yes"/>
      <point x="402" y="696"/>
      <point x="400" y="704"/>
      <point x="397" y="710" type="curve"/>
      <point x="396" y="712"/>
      <point x="392" y="712"/>
      <point x="391" y="711" type="curve"/>
      <point x="386" y="705"/>
      <point x="382" y="684"/>
      <point x="368" y="676" type="curve" smooth="yes"/>
      <point x="354" y="668"/>
      <point x="339" y="665"/>
      <point x="325" y="660" type="curve"/>
      <point x="323" y="639"/>
      <point x="318" y="620"/>
      <point x="311" y="600" type="curve" smooth="yes"/>
      <point x="241" y="408"/>
      <point x="200" y="299"/>
      <point x="123" y="121" type="curve" smooth="yes"/>
      <point x="100" y="71"/>
      <point x="68" y="54"/>
      <point x="35" y="43" type="curve" smooth="yes"/>
      <point x="9" y="34"/>
      <point x="-2" y="25"/>
      <point x="-2" y="12" type="curve" smooth="yes"/>
      <point x="-2" y="2"/>
      <point x="10" y="-5"/>
    </contour>
    <contour>
      <point x="277" y="300" type="line" smooth="yes"/>
      <point x="264" y="300"/>
      <point x="256" y="300"/>
      <point x="256" y="307" type="curve" smooth="yes"/>
      <point x="256" y="309"/>
      <point x="257" y="312"/>
      <point x="258" y="315" type="curve"/>
      <point x="345" y="551" type="line" smooth="yes"/>
      <point x="349" y="562"/>
      <point x="352" y="569"/>
      <point x="354" y="569" type="curve" smooth="yes"/>
      <point x="358" y="569"/>
      <point x="360" y="562"/>
      <point x="365" y="550" type="curve" smooth="yes"/>
      <point x="438" y="315" type="line"/>
      <point x="439" y="311"/>
      <point x="440" y="307"/>
      <point x="440" y="305" type="curve" smooth="yes"/>
      <point x="440" y="300"/>
      <point x="436" y="300"/>
      <point x="426" y="300" type="curve" smooth="yes"/>
    </contour>
  </outline>
</glyph>
<glyph name="B" format="1">
  <advance width="621"/>
  <unicode hex="0042"/>
  <outline>
    <contour>
      <point x="49" y="-5" type="curve" smooth="yes"/>
      <point x="112" y="-5"/>
      <point x="133" y="0"/>
      <point x="190" y="0" type="curve" smooth="yes"/>
      <point x="233" y="0"/>
      <point x="273" y="-4"/>
      <point x="292" y="-4" type="curve" smooth="yes"/>
      <point x="371" y="-4"/>
      <point x="427" y="9"/>
      <point x="471" y="31" type="curve" smooth="yes"/>
      <point x="515" y="54"/>
      <point x="580" y="88"/>
      <point x="580" y="201" type="curve" smooth="yes"/>
      <point x="580" y="322"/>
      <point x="493" y="352"/>
      <point x="430" y="372" type="curve" smooth="yes"/>
      <point x="423" y="375"/>
      <point x="424" y="381"/>
      <point x="430" y="383" type="curve" smooth="yes"/>
      <point x="465" y="396"/>
      <point x="480" y="406"/>
      <point x="502" y="427" type="curve" smooth="yes"/>
      <point x="518" y="443"/>
      <point x="538" y="480"/>
      <point x="538" y="527" type="curve" smooth="yes"/>
      <point x="538" y="640"/>
      <point x="458" y="682"/>
      <point x="293" y="682" type="curve" smooth="yes"/>
      <point x="230" y="682"/>
      <point x="214" y="676"/>
      <point x="173" y="676" type="curve" smooth="yes"/>
      <point x="129" y="676"/>
      <point x="119" y="678"/>
      <point x="60" y="678" type="curve" smooth="yes"/>
      <point x="42" y="678"/>
      <point x="31" y="672"/>
      <point x="31" y="662" type="curve" smooth="yes"/>
      <point x="31" y="651"/>
      <point x="41" y="641"/>
      <point x="64" y="639" type="curve" smooth="yes"/>
      <point x="113" y="633"/>
      <point x="131" y="612"/>
      <point x="131" y="560" type="curve" smooth="yes"/>
      <point x="131" y="107" type="line" smooth="yes"/>
      <point x="131" y="59"/>
      <point x="103" y="42"/>
      <point x="53" y="33" type="curve" smooth="yes"/>
      <point x="30" y="28"/>
      <point x="19" y="22"/>
      <point x="19" y="10" type="curve" smooth="yes"/>
      <point x="19" y="0"/>
      <point x="32" y="-5"/>
    </contour>
    <contour>
      <point x="302" y="49" type="curve" smooth="yes"/>
      <point x="249" y="49"/>
      <point x="219" y="64"/>
      <point x="219" y="117" type="curve" smooth="yes"/>
      <point x="219" y="313" type="line" smooth="yes"/>
      <point x="219" y="328"/>
      <point x="234" y="349"/>
      <point x="279" y="349" type="curve" smooth="yes"/>
      <point x="342" y="349"/>
      <point x="382" y="335"/>
      <point x="402" y="324" type="curve" smooth="yes"/>
      <point x="433" y="308"/>
      <point x="477" y="271"/>
      <point x="477" y="198" type="curve" smooth="yes"/>
      <point x="477" y="114"/>
      <point x="397" y="49"/>
    </contour>
    <contour>
      <point x="268" y="391" type="curve" smooth="yes"/>
      <point x="251" y="391"/>
      <point x="219" y="393"/>
      <point x="219" y="427" type="curve" smooth="yes"/>
      <point x="219" y="594" type="line" smooth="yes"/>
      <point x="219" y="623"/>
      <point x="231" y="637"/>
      <point x="289" y="637" type="curve" smooth="yes"/>
      <point x="419" y="637"/>
      <point x="444" y="568"/>
      <point x="444" y="510" type="curve" smooth="yes"/>
      <point x="444" y="455"/>
      <point x="412" y="426"/>
      <point x="395" y="417" type="curve" smooth="yes"/>
      <point x="353" y="397"/>
      <point x="307" y="391"/>
    </contour>
  </outline>
</glyph>
<glyph name="C" format="1">
  <advance width="736"/>
  <unicode hex="0043"/>
  <outline>
    <contour>
      <point x="426" y="-15" type="curve" smooth="yes"/>
      <point x="493" y="-15"/>
      <point x="570" y="-6"/>
      <point x="620" y="14" type="curve" smooth="yes"/>
      <point x="641" y="22"/>
      <point x="643" y="23"/>
      <point x="653" y="43" type="curve" smooth="yes"/>
      <point x="666" y="75"/>
      <point x="679" y="132"/>
      <point x="680" y="150" type="curve" smooth="yes"/>
      <point x="681" y="175"/>
      <point x="648" y="179"/>
      <point x="635" y="154" type="curve" smooth="yes"/>
      <point x="594" y="79"/>
      <point x="537" y="33"/>
      <point x="440" y="33" type="curve" smooth="yes"/>
      <point x="264" y="33"/>
      <point x="158" y="196"/>
      <point x="158" y="359" type="curve" smooth="yes"/>
      <point x="158" y="504"/>
      <point x="273" y="639"/>
      <point x="433" y="639" type="curve" smooth="yes"/>
      <point x="491" y="639"/>
      <point x="540" y="628"/>
      <point x="573" y="608" type="curve" smooth="yes"/>
      <point x="608" y="585"/>
      <point x="621" y="552"/>
      <point x="635" y="505" type="curve" smooth="yes"/>
      <point x="643" y="478"/>
      <point x="677" y="488"/>
      <point x="675" y="506" type="curve" smooth="yes"/>
      <point x="673" y="558"/>
      <point x="667" y="597"/>
      <point x="664" y="628" type="curve" smooth="yes"/>
      <point x="662" y="646"/>
      <point x="654" y="657"/>
      <point x="634" y="662" type="curve" smooth="yes"/>
      <point x="566" y="680"/>
      <point x="530" y="688"/>
      <point x="452" y="688" type="curve" smooth="yes"/>
      <point x="236" y="688"/>
      <point x="47" y="538"/>
      <point x="47" y="336" type="curve" smooth="yes"/>
      <point x="47" y="123"/>
      <point x="229" y="-15"/>
    </contour>
  </outline>
</glyph>
<glyph name="F" format="1">
  <advance width="541"/>
  <unicode hex="0046"/>
  <outline>
    <contour>
      <point x="68" y="-5" type="curve" smooth="yes"/>
      <point x="125" y="-5"/>
      <point x="149" y="2"/>
      <point x="200" y="2" type="curve" smooth="yes"/>
      <point x="239" y="2"/>
      <point x="246" y="-5"/>
      <point x="303" y="-5" type="curve" smooth="yes"/>
      <point x="320" y="-5"/>
      <point x="333" y="-1"/>
      <point x="333" y="10" type="curve" smooth="yes"/>
      <point x="333" y="22"/>
      <point x="323" y="30"/>
      <point x="300" y="34" type="curve" smooth="yes"/>
      <point x="249" y="43"/>
      <point x="234" y="68"/>
      <point x="232" y="111" type="curve" smooth="yes"/>
      <point x="229" y="177"/>
      <point x="229" y="237"/>
      <point x="229" y="298" type="curve" smooth="yes"/>
      <point x="229" y="315"/>
      <point x="240" y="322"/>
      <point x="254" y="323" type="curve" smooth="yes"/>
      <point x="275" y="325"/>
      <point x="296" y="325"/>
      <point x="320" y="325" type="curve" smooth="yes"/>
      <point x="336" y="325"/>
      <point x="352" y="324"/>
      <point x="369" y="324" type="curve" smooth="yes"/>
      <point x="384" y="324"/>
      <point x="401" y="314"/>
      <point x="412" y="285" type="curve" smooth="yes"/>
      <point x="415" y="276"/>
      <point x="424" y="261"/>
      <point x="442" y="261" type="curve" smooth="yes"/>
      <point x="453" y="261"/>
      <point x="455" y="270"/>
      <point x="455" y="279" type="curve"/>
      <point x="453" y="307"/>
      <point x="452" y="332"/>
      <point x="452" y="352" type="curve" smooth="yes"/>
      <point x="452" y="367"/>
      <point x="452" y="391"/>
      <point x="455" y="413" type="curve" smooth="yes"/>
      <point x="456" y="424"/>
      <point x="446" y="432"/>
      <point x="437" y="432" type="curve" smooth="yes"/>
      <point x="430" y="432"/>
      <point x="419" y="420"/>
      <point x="415" y="411" type="curve" smooth="yes"/>
      <point x="405" y="389"/>
      <point x="387" y="374"/>
      <point x="364" y="374" type="curve" smooth="yes"/>
      <point x="338" y="374"/>
      <point x="284" y="371"/>
      <point x="240" y="371" type="curve" smooth="yes"/>
      <point x="231" y="371"/>
      <point x="229" y="382"/>
      <point x="229" y="393" type="curve"/>
      <point x="228" y="417"/>
      <point x="228" y="441"/>
      <point x="228" y="475" type="curve" smooth="yes"/>
      <point x="228" y="510"/>
      <point x="228" y="552"/>
      <point x="229" y="577" type="curve" smooth="yes"/>
      <point x="230" y="604"/>
      <point x="233" y="627"/>
      <point x="264" y="627" type="curve" smooth="yes"/>
      <point x="398" y="627" type="line" smooth="yes"/>
      <point x="424" y="627"/>
      <point x="444" y="621"/>
      <point x="460" y="603" type="curve" smooth="yes"/>
      <point x="468" y="594"/>
      <point x="475" y="577"/>
      <point x="481" y="558" type="curve" smooth="yes"/>
      <point x="483" y="549"/>
      <point x="491" y="544"/>
      <point x="501" y="544" type="curve" smooth="yes"/>
      <point x="509" y="544"/>
      <point x="513" y="554"/>
      <point x="513" y="566" type="curve" smooth="yes"/>
      <point x="513" y="580"/>
      <point x="511" y="652"/>
      <point x="508" y="676" type="curve" smooth="yes"/>
      <point x="507" y="683"/>
      <point x="496" y="685"/>
      <point x="489" y="685" type="curve" smooth="yes"/>
      <point x="465" y="685"/>
      <point x="431" y="675"/>
      <point x="386" y="675" type="curve"/>
      <point x="343" y="675"/>
      <point x="293" y="675"/>
      <point x="251" y="675" type="curve" smooth="yes"/>
      <point x="180" y="675"/>
      <point x="149" y="678"/>
      <point x="74" y="678" type="curve" smooth="yes"/>
      <point x="57" y="678"/>
      <point x="44" y="674"/>
      <point x="44" y="663" type="curve" smooth="yes"/>
      <point x="44" y="651"/>
      <point x="54" y="641"/>
      <point x="77" y="636" type="curve" smooth="yes"/>
      <point x="128" y="626"/>
      <point x="139" y="599"/>
      <point x="139" y="543" type="curve" smooth="yes"/>
      <point x="139" y="110" type="line" smooth="yes"/>
      <point x="139" y="61"/>
      <point x="122" y="43"/>
      <point x="71" y="34" type="curve" smooth="yes"/>
      <point x="48" y="30"/>
      <point x="38" y="22"/>
      <point x="38" y="10" type="curve" smooth="yes"/>
      <point x="38" y="-1"/>
      <point x="50" y="-5"/>
    </contour>
  </outline>
</glyph>
<glyph name="G" format="1">
  <advance width="763"/>
  <unicode hex="0047"/>
  <outline>
    <contour>
      <point x="411" y="-14" type="curve" smooth="yes"/>
      <point x="547" y="-14"/>
      <point x="641" y="52"/>
      <point x="662" y="55" type="curve" smooth="yes"/>
      <point x="676" y="57"/>
      <point x="676" y="69"/>
      <point x="676" y="75" type="curve" smooth="yes"/>
      <point x="676" y="80"/>
      <point x="667" y="85"/>
      <point x="663" y="92" type="curve"/>
      <point x="660" y="98"/>
      <point x="657" y="101"/>
      <point x="657" y="108" type="curve" smooth="yes"/>
      <point x="657" y="137" type="line" smooth="yes"/>
      <point x="657" y="165"/>
      <point x="658" y="188"/>
      <point x="664" y="217" type="curve" smooth="yes"/>
      <point x="670" y="240"/>
      <point x="681" y="252"/>
      <point x="705" y="260" type="curve"/>
      <point x="710" y="261"/>
      <point x="726" y="271"/>
      <point x="726" y="282" type="curve" smooth="yes"/>
      <point x="726" y="297"/>
      <point x="710" y="301"/>
      <point x="705" y="301" type="curve" smooth="yes"/>
      <point x="667" y="301"/>
      <point x="649" y="297"/>
      <point x="612" y="297" type="curve" smooth="yes"/>
      <point x="555" y="297"/>
      <point x="532" y="301"/>
      <point x="481" y="301" type="curve" smooth="yes"/>
      <point x="472" y="301"/>
      <point x="457" y="293"/>
      <point x="457" y="279" type="curve" smooth="yes"/>
      <point x="457" y="264"/>
      <point x="473" y="256"/>
      <point x="480" y="256" type="curve" smooth="yes"/>
      <point x="500" y="256"/>
      <point x="559" y="247"/>
      <point x="576" y="228" type="curve" smooth="yes"/>
      <point x="580" y="224"/>
      <point x="581" y="214"/>
      <point x="581" y="202" type="curve" smooth="yes"/>
      <point x="581" y="183"/>
      <point x="580" y="162"/>
      <point x="580" y="147" type="curve" smooth="yes"/>
      <point x="580" y="114"/>
      <point x="565" y="88"/>
      <point x="550" y="73" type="curve" smooth="yes"/>
      <point x="538" y="62"/>
      <point x="504" y="38"/>
      <point x="425" y="38" type="curve" smooth="yes"/>
      <point x="288" y="38"/>
      <point x="155" y="148"/>
      <point x="155" y="337" type="curve" smooth="yes"/>
      <point x="155" y="494"/>
      <point x="264" y="635"/>
      <point x="427" y="635" type="curve" smooth="yes"/>
      <point x="525" y="635"/>
      <point x="577" y="598"/>
      <point x="591" y="581" type="curve" smooth="yes"/>
      <point x="607" y="562"/>
      <point x="613" y="548"/>
      <point x="622" y="527" type="curve"/>
      <point x="625" y="514"/>
      <point x="631" y="499"/>
      <point x="644" y="499" type="curve" smooth="yes"/>
      <point x="657" y="499"/>
      <point x="664" y="509"/>
      <point x="664" y="519" type="curve" smooth="yes"/>
      <point x="664" y="549"/>
      <point x="659" y="596"/>
      <point x="654" y="641" type="curve" smooth="yes"/>
      <point x="653" y="649"/>
      <point x="651" y="651"/>
      <point x="645" y="654" type="curve" smooth="yes"/>
      <point x="616" y="667"/>
      <point x="487" y="688"/>
      <point x="437" y="688" type="curve" smooth="yes"/>
      <point x="225" y="688"/>
      <point x="46" y="529"/>
      <point x="46" y="323" type="curve" smooth="yes"/>
      <point x="46" y="131"/>
      <point x="216" y="-14"/>
    </contour>
  </outline>
</glyph>
<glyph name="P" format="1">
  <advance width="585"/>
  <unicode hex="0050"/>
  <outline>
    <contour>
      <point x="53" y="-5" type="curve" smooth="yes"/>
      <point x="110" y="-5"/>
      <point x="135" y="3"/>
      <point x="188" y="3" type="curve" smooth="yes"/>
      <point x="230" y="3"/>
      <point x="240" y="-5"/>
      <point x="297" y="-5" type="curve" smooth="yes"/>
      <point x="314" y="-5"/>
      <point x="327" y="-1"/>
      <point x="327" y="10" type="curve" smooth="yes"/>
      <point x="327" y="22"/>
      <point x="317" y="29"/>
      <point x="294" y="34" type="curve" smooth="yes"/>
      <point x="243" y="44"/>
      <point x="222" y="71"/>
      <point x="222" y="123" type="curve" smooth="yes"/>
      <point x="222" y="602" type="line" smooth="yes"/>
      <point x="222" y="629"/>
      <point x="249" y="640"/>
      <point x="288" y="640" type="curve" smooth="yes"/>
      <point x="390" y="640"/>
      <point x="463" y="591"/>
      <point x="463" y="490" type="curve" smooth="yes"/>
      <point x="463" y="377"/>
      <point x="419" y="310"/>
      <point x="334" y="310" type="curve" smooth="yes"/>
      <point x="310" y="310"/>
      <point x="297" y="312"/>
      <point x="289" y="312" type="curve" smooth="yes"/>
      <point x="280" y="312"/>
      <point x="270" y="299"/>
      <point x="270" y="292" type="curve" smooth="yes"/>
      <point x="270" y="280"/>
      <point x="288" y="264"/>
      <point x="320" y="264" type="curve" smooth="yes"/>
      <point x="483" y="264"/>
      <point x="559" y="371"/>
      <point x="559" y="498" type="curve" smooth="yes"/>
      <point x="559" y="614"/>
      <point x="453" y="683"/>
      <point x="292" y="683" type="curve" smooth="yes"/>
      <point x="262" y="683"/>
      <point x="217" y="677"/>
      <point x="175" y="677" type="curve" smooth="yes"/>
      <point x="130" y="677"/>
      <point x="127" y="678"/>
      <point x="68" y="678" type="curve" smooth="yes"/>
      <point x="49" y="678"/>
      <point x="36" y="673"/>
      <point x="36" y="662" type="curve" smooth="yes"/>
      <point x="36" y="650"/>
      <point x="47" y="641"/>
      <point x="70" y="636" type="curve" smooth="yes"/>
      <point x="121" y="623"/>
      <point x="132" y="595"/>
      <point x="132" y="539" type="curve" smooth="yes"/>
      <point x="132" y="115" type="line" smooth="yes"/>
      <point x="132" y="63"/>
      <point x="107" y="44"/>
      <point x="56" y="34" type="curve" smooth="yes"/>
      <point x="33" y="29"/>
      <point x="23" y="22"/>
      <point x="23" y="10" type="curve" smooth="yes"/>
      <point x="23" y="-1"/>
      <point x="35" y="-5"/>
    </contour>
  </outline>
</glyph>
<glyph name="Q" format="1">
  <advance width="802"/>
  <unicode hex="0051"/>
  <outline>
    <contour>
      <point x="783" y="-249" type="curve" smooth="yes"/>
      <point x="822" y="-249"/>
      <point x="866" y="-238"/>
      <point x="906" y="-215" type="curve" smooth="yes"/>
      <point x="922" y="-205"/>
      <point x="925" y="-199"/>
      <point x="925" y="-187" type="curve" smooth="yes"/>
      <point x="925" y="-181"/>
      <point x="918" y="-176"/>
      <point x="911" y="-176" type="curve" smooth="yes"/>
      <point x="905" y="-176"/>
      <point x="898" y="-178"/>
      <point x="891" y="-180" type="curve"/>
      <point x="877" y="-186"/>
      <point x="852" y="-190"/>
      <point x="826" y="-190" type="curve" smooth="yes"/>
      <point x="752" y="-189"/>
      <point x="694" y="-171"/>
      <point x="633" y="-128" type="curve" smooth="yes"/>
      <point x="581" y="-92"/>
      <point x="541" y="-59"/>
      <point x="501" y="-17" type="curve"/>
      <point x="498" y="-14"/>
      <point x="497" y="-11"/>
      <point x="497" y="-8" type="curve" smooth="yes"/>
      <point x="497" y="-6"/>
      <point x="498" y="-3"/>
      <point x="505" y="-1" type="curve" smooth="yes"/>
      <point x="669" y="44"/>
      <point x="756" y="191"/>
      <point x="756" y="348" type="curve" smooth="yes"/>
      <point x="756" y="553"/>
      <point x="591" y="689"/>
      <point x="406" y="689" type="curve" smooth="yes"/>
      <point x="171" y="689"/>
      <point x="46" y="514"/>
      <point x="46" y="327" type="curve" smooth="yes"/>
      <point x="46" y="166"/>
      <point x="142" y="62"/>
      <point x="261" y="11" type="curve" smooth="yes"/>
      <point x="296" y="-3"/>
      <point x="339" y="-16"/>
      <point x="388" y="-55" type="curve" smooth="yes"/>
      <point x="457" y="-109"/>
      <point x="498" y="-138"/>
      <point x="552" y="-174" type="curve" smooth="yes"/>
      <point x="620" y="-220"/>
      <point x="683" y="-249"/>
    </contour>
    <contour>
      <point x="412" y="40" type="curve" smooth="yes"/>
      <point x="240" y="40"/>
      <point x="152" y="192"/>
      <point x="152" y="377" type="curve" smooth="yes"/>
      <point x="152" y="531"/>
      <point x="233" y="633"/>
      <point x="389" y="633" type="curve" smooth="yes"/>
      <point x="561" y="633"/>
      <point x="650" y="482"/>
      <point x="650" y="299" type="curve" smooth="yes"/>
      <point x="650" y="143"/>
      <point x="569" y="40"/>
    </contour>
  </outline>
</glyph>
<glyph name="R" format="1">
  <advance width="750"/>
  <unicode hex="0052"/>
  <outline>
    <contour>
      <point x="670" y="-21" type="curve" smooth="yes"/>
      <point x="696" y="-21"/>
      <point x="756" y="-15"/>
      <point x="756" y="21" type="curve" smooth="yes"/>
      <point x="756" y="31"/>
      <point x="750" y="34"/>
      <point x="740" y="34" type="curve" smooth="yes"/>
      <point x="692" y="34"/>
      <point x="658" y="36"/>
      <point x="622" y="68" type="curve" smooth="yes"/>
      <point x="525" y="153"/>
      <point x="478" y="229"/>
      <point x="414" y="324" type="curve" smooth="yes"/>
      <point x="410" y="330"/>
      <point x="409" y="335"/>
      <point x="414" y="337" type="curve"/>
      <point x="470" y="366"/>
      <point x="535" y="418"/>
      <point x="535" y="512" type="curve" smooth="yes"/>
      <point x="535" y="625"/>
      <point x="450" y="682"/>
      <point x="291" y="682" type="curve" smooth="yes"/>
      <point x="230" y="682"/>
      <point x="210" y="677"/>
      <point x="170" y="677" type="curve" smooth="yes"/>
      <point x="129" y="677"/>
      <point x="122" y="679"/>
      <point x="67" y="679" type="curve" smooth="yes"/>
      <point x="50" y="679"/>
      <point x="37" y="674"/>
      <point x="37" y="663" type="curve" smooth="yes"/>
      <point x="37" y="651"/>
      <point x="47" y="643"/>
      <point x="70" y="639" type="curve" smooth="yes"/>
      <point x="125" y="630"/>
      <point x="132" y="615"/>
      <point x="132" y="546" type="curve" smooth="yes"/>
      <point x="132" y="115" type="line" smooth="yes"/>
      <point x="132" y="63"/>
      <point x="114" y="44"/>
      <point x="63" y="34" type="curve" smooth="yes"/>
      <point x="39" y="29"/>
      <point x="30" y="23"/>
      <point x="30" y="11" type="curve" smooth="yes"/>
      <point x="30" y="0"/>
      <point x="42" y="-5"/>
      <point x="60" y="-5" type="curve" smooth="yes"/>
      <point x="116" y="-5"/>
      <point x="138" y="3"/>
      <point x="188" y="3" type="curve" smooth="yes"/>
      <point x="230" y="3"/>
      <point x="242" y="-5"/>
      <point x="297" y="-5" type="curve" smooth="yes"/>
      <point x="315" y="-5"/>
      <point x="327" y="0"/>
      <point x="327" y="11" type="curve" smooth="yes"/>
      <point x="327" y="23"/>
      <point x="317" y="29"/>
      <point x="294" y="34" type="curve" smooth="yes"/>
      <point x="245" y="43"/>
      <point x="222" y="78"/>
      <point x="222" y="124" type="curve" smooth="yes"/>
      <point x="222" y="294" type="line" smooth="yes"/>
      <point x="222" y="306"/>
      <point x="226" y="315"/>
      <point x="238" y="314" type="curve" smooth="yes"/>
      <point x="260" y="312"/>
      <point x="293" y="307"/>
      <point x="323" y="293" type="curve" smooth="yes"/>
      <point x="344" y="283"/>
      <point x="356" y="272"/>
      <point x="368" y="253" type="curve" smooth="yes"/>
      <point x="437" y="140"/>
      <point x="471" y="98"/>
      <point x="523" y="36" type="curve" smooth="yes"/>
      <point x="559" y="-9"/>
      <point x="609" y="-21"/>
    </contour>
    <contour>
      <point x="278" y="354" type="curve" smooth="yes"/>
      <point x="243" y="354"/>
      <point x="222" y="355"/>
      <point x="222" y="385" type="curve" smooth="yes"/>
      <point x="222" y="457"/>
      <point x="223" y="521"/>
      <point x="224" y="551" type="curve" smooth="yes"/>
      <point x="227" y="614"/>
      <point x="236" y="635"/>
      <point x="281" y="635" type="curve" smooth="yes"/>
      <point x="414" y="635"/>
      <point x="436" y="571"/>
      <point x="436" y="494" type="curve" smooth="yes"/>
      <point x="436" y="420"/>
      <point x="375" y="354"/>
    </contour>
  </outline>
</glyph>
<glyph name="S" format="1">
  <advance width="485"/>
  <unicode hex="0053"/>
  <outline>
    <contour>
      <point x="213" y="-16" type="curve" smooth="yes"/>
      <point x="351" y="-16"/>
      <point x="442" y="64"/>
      <point x="442" y="189" type="curve" smooth="yes"/>
      <point x="442" y="292"/>
      <point x="367" y="341"/>
      <point x="289" y="386" type="curve" smooth="yes"/>
      <point x="210" y="431"/>
      <point x="148" y="469"/>
      <point x="148" y="528" type="curve" smooth="yes"/>
      <point x="148" y="608"/>
      <point x="202" y="638"/>
      <point x="264" y="638" type="curve" smooth="yes"/>
      <point x="323" y="638"/>
      <point x="361" y="605"/>
      <point x="386" y="538" type="curve" smooth="yes"/>
      <point x="389" y="526"/>
      <point x="403" y="522"/>
      <point x="415" y="522" type="curve" smooth="yes"/>
      <point x="423" y="522"/>
      <point x="434" y="525"/>
      <point x="434" y="536" type="curve" smooth="yes"/>
      <point x="434" y="567"/>
      <point x="422" y="609"/>
      <point x="414" y="640" type="curve" smooth="yes"/>
      <point x="411" y="651"/>
      <point x="402" y="663"/>
      <point x="392" y="667" type="curve" smooth="yes"/>
      <point x="369" y="676"/>
      <point x="332" y="689"/>
      <point x="282" y="689" type="curve" smooth="yes"/>
      <point x="132" y="689"/>
      <point x="62" y="604"/>
      <point x="62" y="500" type="curve" smooth="yes"/>
      <point x="62" y="400"/>
      <point x="150" y="352"/>
      <point x="236" y="301" type="curve" smooth="yes"/>
      <point x="311" y="258"/>
      <point x="352" y="233"/>
      <point x="352" y="153" type="curve" smooth="yes"/>
      <point x="352" y="80"/>
      <point x="301" y="34"/>
      <point x="231" y="34" type="curve" smooth="yes"/>
      <point x="168" y="34"/>
      <point x="109" y="67"/>
      <point x="83" y="161" type="curve" smooth="yes"/>
      <point x="80" y="170"/>
      <point x="73" y="174"/>
      <point x="64" y="174" type="curve" smooth="yes"/>
      <point x="51" y="174"/>
      <point x="40" y="167"/>
      <point x="41" y="158" type="curve"/>
      <point x="43" y="129"/>
      <point x="44" y="80"/>
      <point x="51" y="53" type="curve" smooth="yes"/>
      <point x="54" y="45"/>
      <point x="60" y="37"/>
      <point x="65" y="32" type="curve"/>
      <point x="104" y="1"/>
      <point x="155" y="-16"/>
    </contour>
  </outline>
</glyph>
<glyph name="V" format="1">
  <advance width="688"/>
  <unicode hex="0056"/>
  <outline>
    <contour>
      <point x="334" y="-12" type="curve" smooth="yes"/>
      <point x="340" y="-12"/>
      <point x="349" y="-9"/>
      <point x="351" y="-4" type="curve" smooth="yes"/>
      <point x="365" y="19"/>
      <point x="380" y="63"/>
      <point x="387" y="79" type="curve" smooth="yes"/>
      <point x="570" y="550" type="line" smooth="yes"/>
      <point x="587" y="594"/>
      <point x="620" y="628"/>
      <point x="670" y="639" type="curve" smooth="yes"/>
      <point x="693" y="644"/>
      <point x="702" y="652"/>
      <point x="702" y="663" type="curve" smooth="yes"/>
      <point x="702" y="673"/>
      <point x="690" y="678"/>
      <point x="673" y="678" type="curve" smooth="yes"/>
      <point x="647" y="678"/>
      <point x="597" y="675"/>
      <point x="558" y="675" type="curve" smooth="yes"/>
      <point x="519" y="675"/>
      <point x="484" y="676"/>
      <point x="458" y="676" type="curve" smooth="yes"/>
      <point x="440" y="676"/>
      <point x="428" y="672"/>
      <point x="428" y="662" type="curve" smooth="yes"/>
      <point x="428" y="651"/>
      <point x="440" y="642"/>
      <point x="464" y="639" type="curve" smooth="yes"/>
      <point x="503" y="633"/>
      <point x="529" y="606"/>
      <point x="504" y="539" type="curve" smooth="yes"/>
      <point x="364" y="156" type="line" smooth="yes"/>
      <point x="361" y="146"/>
      <point x="355" y="150"/>
      <point x="353" y="155" type="curve" smooth="yes"/>
      <point x="210" y="553" type="line"/>
      <point x="207" y="562"/>
      <point x="199" y="579"/>
      <point x="199" y="601" type="curve" smooth="yes"/>
      <point x="199" y="623"/>
      <point x="226" y="635"/>
      <point x="261" y="638" type="curve" smooth="yes"/>
      <point x="286" y="641"/>
      <point x="296" y="651"/>
      <point x="296" y="663" type="curve" smooth="yes"/>
      <point x="296" y="672"/>
      <point x="283" y="677"/>
      <point x="265" y="677" type="curve" smooth="yes"/>
      <point x="244" y="677"/>
      <point x="200" y="675"/>
      <point x="158" y="675" type="curve" smooth="yes"/>
      <point x="110" y="675"/>
      <point x="63" y="678"/>
      <point x="30" y="678" type="curve" smooth="yes"/>
      <point x="13" y="678"/>
      <point x="0" y="674"/>
      <point x="0" y="665" type="curve" smooth="yes"/>
      <point x="0" y="654"/>
      <point x="12" y="647"/>
      <point x="36" y="638" type="curve" smooth="yes"/>
      <point x="74" y="626"/>
      <point x="95" y="597"/>
      <point x="108" y="562" type="curve" smooth="yes"/>
      <point x="291" y="56" type="line" smooth="yes"/>
      <point x="297" y="38"/>
      <point x="307" y="10"/>
      <point x="314" y="-5" type="curve" smooth="yes"/>
      <point x="317" y="-10"/>
      <point x="327" y="-12"/>
    </contour>
  </outline>
</glyph>
<glyph name="W" format="1">
  <advance width="959"/>
  <unicode hex="0057"/>
  <outline>
    <contour>
      <point x="346" y="-16" type="curve" smooth="yes"/>
      <point x="358" y="-16"/>
      <point x="373" y="0"/>
      <point x="379" y="15" type="curve" smooth="yes"/>
      <point x="424" y="134"/>
      <point x="450" y="200"/>
      <point x="496" y="314" type="curve" smooth="yes"/>
      <point x="501" y="327"/>
      <point x="503" y="329"/>
      <point x="508" y="320" type="curve"/>
      <point x="556" y="196"/>
      <point x="579" y="124"/>
      <point x="627" y="7" type="curve" smooth="yes"/>
      <point x="631" y="-2"/>
      <point x="645" y="-12"/>
      <point x="653" y="-12" type="curve" smooth="yes"/>
      <point x="664" y="-12"/>
      <point x="676" y="3"/>
      <point x="679" y="12" type="curve" smooth="yes"/>
      <point x="855" y="548" type="line"/>
      <point x="867" y="579"/>
      <point x="887" y="626"/>
      <point x="938" y="638" type="curve" smooth="yes"/>
      <point x="963" y="644"/>
      <point x="973" y="652"/>
      <point x="973" y="664" type="curve" smooth="yes"/>
      <point x="973" y="674"/>
      <point x="961" y="678"/>
      <point x="943" y="678" type="curve" smooth="yes"/>
      <point x="918" y="678"/>
      <point x="886" y="674"/>
      <point x="852" y="674" type="curve" smooth="yes"/>
      <point x="826" y="674"/>
      <point x="806" y="675"/>
      <point x="779" y="675" type="curve" smooth="yes"/>
      <point x="762" y="675"/>
      <point x="749" y="671"/>
      <point x="749" y="661" type="curve" smooth="yes"/>
      <point x="749" y="649"/>
      <point x="766" y="641"/>
      <point x="779" y="635" type="curve" smooth="yes"/>
      <point x="799" y="629"/>
      <point x="807" y="614"/>
      <point x="807" y="595" type="curve" smooth="yes"/>
      <point x="807" y="584"/>
      <point x="805" y="571"/>
      <point x="801" y="556" type="curve"/>
      <point x="757" y="411"/>
      <point x="710" y="254"/>
      <point x="677" y="160" type="curve"/>
      <point x="673" y="151"/>
      <point x="668" y="147"/>
      <point x="665" y="154" type="curve" smooth="yes"/>
      <point x="568" y="414" type="line"/>
      <point x="565" y="421"/>
      <point x="570" y="443"/>
      <point x="575" y="453" type="curve" smooth="yes"/>
      <point x="591" y="498"/>
      <point x="617" y="561"/>
      <point x="630" y="585" type="curve" smooth="yes"/>
      <point x="650" y="619"/>
      <point x="659" y="630"/>
      <point x="698" y="640" type="curve" smooth="yes"/>
      <point x="721" y="645"/>
      <point x="732" y="653"/>
      <point x="732" y="664" type="curve" smooth="yes"/>
      <point x="732" y="674"/>
      <point x="720" y="678"/>
      <point x="703" y="678" type="curve" smooth="yes"/>
      <point x="678" y="678"/>
      <point x="662" y="674"/>
      <point x="638" y="674" type="curve" smooth="yes"/>
      <point x="619" y="674"/>
      <point x="612" y="677"/>
      <point x="582" y="677" type="curve" smooth="yes"/>
      <point x="565" y="677"/>
      <point x="553" y="673"/>
      <point x="553" y="663" type="curve" smooth="yes"/>
      <point x="553" y="645"/>
      <point x="586" y="642"/>
      <point x="586" y="617" type="curve" smooth="yes"/>
      <point x="586" y="614"/>
      <point x="586" y="611"/>
      <point x="585" y="608" type="curve"/>
      <point x="578" y="586"/>
      <point x="564" y="543"/>
      <point x="547" y="504" type="curve" smooth="yes"/>
      <point x="539" y="486"/>
      <point x="536" y="488"/>
      <point x="529" y="504" type="curve" smooth="yes"/>
      <point x="519" y="526"/>
      <point x="493" y="593"/>
      <point x="488" y="609" type="curve" smooth="yes"/>
      <point x="486" y="612"/>
      <point x="485" y="616"/>
      <point x="485" y="619" type="curve" smooth="yes"/>
      <point x="485" y="643"/>
      <point x="525" y="645"/>
      <point x="525" y="662" type="curve" smooth="yes"/>
      <point x="525" y="673"/>
      <point x="513" y="677"/>
      <point x="496" y="677" type="curve" smooth="yes"/>
      <point x="474" y="677"/>
      <point x="445" y="675"/>
      <point x="413" y="675" type="curve" smooth="yes"/>
      <point x="374" y="675"/>
      <point x="346" y="678"/>
      <point x="313" y="678" type="curve" smooth="yes"/>
      <point x="295" y="678"/>
      <point x="283" y="674"/>
      <point x="283" y="664" type="curve" smooth="yes"/>
      <point x="283" y="652"/>
      <point x="295" y="644"/>
      <point x="320" y="636" type="curve" smooth="yes"/>
      <point x="353" y="626"/>
      <point x="399" y="598"/>
      <point x="416" y="556" type="curve" smooth="yes"/>
      <point x="469" y="420" type="line" smooth="yes"/>
      <point x="474" y="407"/>
      <point x="477" y="399"/>
      <point x="477" y="390" type="curve" smooth="yes"/>
      <point x="477" y="384"/>
      <point x="476" y="377"/>
      <point x="471" y="367" type="curve" smooth="yes"/>
      <point x="387" y="166" type="line"/>
      <point x="382" y="155"/>
      <point x="378" y="152"/>
      <point x="371" y="167" type="curve" smooth="yes"/>
      <point x="304" y="327"/>
      <point x="273" y="398"/>
      <point x="210" y="563" type="curve"/>
      <point x="208" y="569"/>
      <point x="202" y="587"/>
      <point x="202" y="605" type="curve" smooth="yes"/>
      <point x="202" y="620"/>
      <point x="206" y="633"/>
      <point x="220" y="637" type="curve" smooth="yes"/>
      <point x="244" y="645"/>
      <point x="254" y="651"/>
      <point x="254" y="663" type="curve" smooth="yes"/>
      <point x="254" y="673"/>
      <point x="241" y="677"/>
      <point x="223" y="677" type="curve" smooth="yes"/>
      <point x="202" y="677"/>
      <point x="164" y="675"/>
      <point x="125" y="675" type="curve" smooth="yes"/>
      <point x="88" y="675"/>
      <point x="64" y="678"/>
      <point x="31" y="678" type="curve" smooth="yes"/>
      <point x="13" y="678"/>
      <point x="0" y="674"/>
      <point x="0" y="664" type="curve" smooth="yes"/>
      <point x="0" y="652"/>
      <point x="11" y="644"/>
      <point x="39" y="634" type="curve" smooth="yes"/>
      <point x="71" y="624"/>
      <point x="95" y="603"/>
      <point x="112" y="566" type="curve"/>
      <point x="325" y="13" type="line" smooth="yes"/>
      <point x="331" y="-2"/>
      <point x="342" y="-16"/>
    </contour>
  </outline>
</glyph>
<glyph name="Y" format="1">
  <advance width="600"/>
  <unicode hex="0059"/>
  <outline>
    <contour>
      <point x="188" y="-5" type="curve" smooth="yes"/>
      <point x="245" y="-5"/>
      <point x="270" y="0"/>
      <point x="322" y="0" type="curve" smooth="yes"/>
      <point x="369" y="0"/>
      <point x="387" y="-5"/>
      <point x="443" y="-5" type="curve" smooth="yes"/>
      <point x="461" y="-5"/>
      <point x="474" y="-1"/>
      <point x="474" y="10" type="curve" smooth="yes"/>
      <point x="474" y="22"/>
      <point x="463" y="29"/>
      <point x="440" y="33" type="curve" smooth="yes"/>
      <point x="390" y="43"/>
      <point x="360" y="74"/>
      <point x="360" y="122" type="curve" smooth="yes"/>
      <point x="360" y="261" type="line" smooth="yes"/>
      <point x="360" y="302"/>
      <point x="359" y="310"/>
      <point x="386" y="355" type="curve" smooth="yes"/>
      <point x="433" y="433"/>
      <point x="451" y="464"/>
      <point x="506" y="550" type="curve" smooth="yes"/>
      <point x="540" y="600"/>
      <point x="557" y="625"/>
      <point x="590" y="633" type="curve" smooth="yes"/>
      <point x="618" y="642"/>
      <point x="643" y="650"/>
      <point x="643" y="661" type="curve" smooth="yes"/>
      <point x="643" y="673"/>
      <point x="632" y="678"/>
      <point x="613" y="678" type="curve" smooth="yes"/>
      <point x="590" y="678"/>
      <point x="550" y="675"/>
      <point x="508" y="675" type="curve" smooth="yes"/>
      <point x="479" y="675"/>
      <point x="455" y="676"/>
      <point x="425" y="676" type="curve" smooth="yes"/>
      <point x="408" y="676"/>
      <point x="396" y="672"/>
      <point x="396" y="662" type="curve" smooth="yes"/>
      <point x="396" y="650"/>
      <point x="415" y="638"/>
      <point x="429" y="636" type="curve" smooth="yes"/>
      <point x="446" y="633"/>
      <point x="465" y="627"/>
      <point x="465" y="603" type="curve" smooth="yes"/>
      <point x="465" y="592"/>
      <point x="461" y="575"/>
      <point x="449" y="553" type="curve" smooth="yes"/>
      <point x="416" y="491"/>
      <point x="396" y="454"/>
      <point x="367" y="406" type="curve" smooth="yes"/>
      <point x="351" y="381"/>
      <point x="344" y="370"/>
      <point x="336" y="370" type="curve" smooth="yes"/>
      <point x="329" y="370"/>
      <point x="321" y="382"/>
      <point x="307" y="408" type="curve" smooth="yes"/>
      <point x="220" y="576" type="line" smooth="yes"/>
      <point x="211" y="592"/>
      <point x="207" y="604"/>
      <point x="207" y="612" type="curve" smooth="yes"/>
      <point x="207" y="627"/>
      <point x="220" y="631"/>
      <point x="237" y="636" type="curve" smooth="yes"/>
      <point x="259" y="643"/>
      <point x="270" y="651"/>
      <point x="270" y="662" type="curve" smooth="yes"/>
      <point x="270" y="673"/>
      <point x="257" y="677"/>
      <point x="239" y="677" type="curve" smooth="yes"/>
      <point x="216" y="677"/>
      <point x="187" y="675"/>
      <point x="154" y="675" type="curve" smooth="yes"/>
      <point x="105" y="675"/>
      <point x="63" y="678"/>
      <point x="31" y="678" type="curve" smooth="yes"/>
      <point x="13" y="678"/>
      <point x="0" y="674"/>
      <point x="0" y="664" type="curve" smooth="yes"/>
      <point x="0" y="652"/>
      <point x="11" y="644"/>
      <point x="36" y="635" type="curve" smooth="yes"/>
      <point x="68" y="625"/>
      <point x="111" y="570"/>
      <point x="125" y="547" type="curve" smooth="yes"/>
      <point x="245" y="344" type="line"/>
      <point x="250" y="335"/>
      <point x="270" y="296"/>
      <point x="270" y="267" type="curve" smooth="yes"/>
      <point x="270" y="122" type="line" smooth="yes"/>
      <point x="270" y="71"/>
      <point x="242" y="43"/>
      <point x="192" y="33" type="curve" smooth="yes"/>
      <point x="168" y="29"/>
      <point x="158" y="22"/>
      <point x="158" y="10" type="curve" smooth="yes"/>
      <point x="158" y="-1"/>
      <point x="171" y="-5"/>
    </contour>
  </outline>
</glyph>
<glyph name="grave" format="1">
  <advance width="211"/>
  <unicode hex="0060"/>
  <outline>
    <contour>
      <point x="178" y="452" type="curve" smooth="yes"/>
      <point x="187" y="452"/>
      <point x="191" y="454"/>
      <point x="189" y="466" type="curve" smooth="yes"/>
      <point x="188" y="472"/>
      <point x="186" y="481"/>
      <point x="180" y="491" type="curve" smooth="yes"/>
      <point x="164" y="526"/>
      <point x="122" y="595"/>
      <point x="105" y="623" type="curve" smooth="yes"/>
      <point x="96" y="638"/>
      <point x="84" y="644"/>
      <point x="70" y="644" type="curve" smooth="yes"/>
      <point x="43" y="644"/>
      <point x="20" y="636"/>
      <point x="22" y="621" type="curve" smooth="yes"/>
      <point x="23" y="614"/>
      <point x="28" y="608"/>
      <point x="34" y="599" type="curve" smooth="yes"/>
      <point x="63" y="556"/>
      <point x="105" y="509"/>
      <point x="136" y="478" type="curve" smooth="yes"/>
      <point x="153" y="460"/>
      <point x="169" y="452"/>
    </contour>
  </outline>
</glyph>
<glyph name="a" format="1">
  <advance width="421"/>
  <unicode hex="0061"/>
  <outline>
    <contour>
      <point x="123" y="-14" type="curve" smooth="yes"/>
      <point x="168" y="-14"/>
      <point x="208" y="2"/>
      <point x="255" y="38" type="curve"/>
      <point x="258" y="38" type="line"/>
      <point x="277" y="3"/>
      <point x="302" y="-14"/>
      <point x="335" y="-14" type="curve" smooth="yes"/>
      <point x="357" y="-14"/>
      <point x="386" y="0"/>
      <point x="408" y="21" type="curve" smooth="yes"/>
      <point x="414" y="27"/>
      <point x="420" y="37"/>
      <point x="420" y="43" type="curve" smooth="yes"/>
      <point x="420" y="51"/>
      <point x="413" y="57"/>
      <point x="405" y="57" type="curve" smooth="yes"/>
      <point x="403" y="57"/>
      <point x="400" y="56"/>
      <point x="395" y="51" type="curve" smooth="yes"/>
      <point x="387" y="43"/>
      <point x="377" y="40"/>
      <point x="360" y="40" type="curve" smooth="yes"/>
      <point x="339" y="40"/>
      <point x="325" y="58"/>
      <point x="325" y="84" type="curve" smooth="yes"/>
      <point x="331" y="321" type="line" smooth="yes"/>
      <point x="332" y="371"/>
      <point x="294" y="409"/>
      <point x="243" y="409" type="curve" smooth="yes"/>
      <point x="200" y="409"/>
      <point x="132" y="379"/>
      <point x="84" y="338" type="curve" smooth="yes"/>
      <point x="57" y="316"/>
      <point x="41" y="290"/>
      <point x="41" y="269" type="curve" smooth="yes"/>
      <point x="41" y="264"/>
      <point x="45" y="260"/>
      <point x="53" y="260" type="curve" smooth="yes"/>
      <point x="74" y="260"/>
      <point x="123" y="285"/>
      <point x="123" y="295" type="curve" smooth="yes"/>
      <point x="123" y="300"/>
      <point x="122" y="308"/>
      <point x="122" y="311" type="curve" smooth="yes"/>
      <point x="122" y="321"/>
      <point x="124" y="331"/>
      <point x="133" y="336" type="curve" smooth="yes"/>
      <point x="147" y="345"/>
      <point x="170" y="351"/>
      <point x="191" y="351" type="curve" smooth="yes"/>
      <point x="231" y="351"/>
      <point x="254" y="327"/>
      <point x="253" y="297" type="curve" smooth="yes"/>
      <point x="251" y="243" type="line" smooth="yes"/>
      <point x="250" y="216"/>
      <point x="249" y="213"/>
      <point x="222" y="203" type="curve" smooth="yes"/>
      <point x="113" y="161" type="line" smooth="yes"/>
      <point x="60" y="141"/>
      <point x="37" y="117"/>
      <point x="37" y="73" type="curve" smooth="yes"/>
      <point x="37" y="33"/>
      <point x="85" y="-14"/>
    </contour>
    <contour>
      <point x="174" y="45" type="curve" smooth="yes"/>
      <point x="148" y="45"/>
      <point x="123" y="59"/>
      <point x="123" y="89" type="curve" smooth="yes"/>
      <point x="123" y="112"/>
      <point x="145" y="134"/>
      <point x="221" y="158" type="curve" smooth="yes"/>
      <point x="232" y="162"/>
      <point x="238" y="163"/>
      <point x="242" y="163" type="curve" smooth="yes"/>
      <point x="250" y="163"/>
      <point x="252" y="157"/>
      <point x="251" y="145" type="curve" smooth="yes"/>
      <point x="249" y="99" type="line" smooth="yes"/>
      <point x="248" y="80"/>
      <point x="243" y="72"/>
      <point x="234" y="66" type="curve" smooth="yes"/>
      <point x="219" y="53"/>
      <point x="199" y="45"/>
    </contour>
  </outline>
</glyph>
<glyph name="b" format="1">
  <advance width="540"/>
  <unicode hex="0062"/>
  <outline>
    <contour>
      <point x="274" y="-14" type="curve" smooth="yes"/>
      <point x="410" y="-14"/>
      <point x="504" y="79"/>
      <point x="504" y="214" type="curve" smooth="yes"/>
      <point x="504" y="324"/>
      <point x="421" y="409"/>
      <point x="316" y="409" type="curve" smooth="yes"/>
      <point x="270" y="409"/>
      <point x="206" y="384"/>
      <point x="162" y="351" type="curve"/>
      <point x="154" y="352"/>
      <point x="152" y="358"/>
      <point x="152" y="383" type="curve" smooth="yes"/>
      <point x="152" y="642" type="line" smooth="yes"/>
      <point x="152" y="698"/>
      <point x="155" y="742"/>
      <point x="155" y="747" type="curve" smooth="yes"/>
      <point x="155" y="751"/>
      <point x="152" y="754"/>
      <point x="149" y="754" type="curve" smooth="yes"/>
      <point x="147" y="754"/>
      <point x="144" y="753"/>
      <point x="140" y="751" type="curve" smooth="yes"/>
      <point x="126" y="745"/>
      <point x="58" y="722"/>
      <point x="30" y="717" type="curve" smooth="yes"/>
      <point x="23" y="715"/>
      <point x="16" y="711"/>
      <point x="16" y="703" type="curve" smooth="yes"/>
      <point x="16" y="695"/>
      <point x="23" y="688"/>
      <point x="29" y="685" type="curve" smooth="yes"/>
      <point x="60" y="671"/>
      <point x="76" y="652"/>
      <point x="76" y="612" type="curve" smooth="yes"/>
      <point x="76" y="81" type="line" smooth="yes"/>
      <point x="76" y="56"/>
      <point x="69" y="21"/>
      <point x="69" y="9" type="curve" smooth="yes"/>
      <point x="69" y="2"/>
      <point x="77" y="-3"/>
      <point x="83" y="-3" type="curve" smooth="yes"/>
      <point x="87" y="-3"/>
      <point x="90" y="-1"/>
      <point x="93" y="2" type="curve" smooth="yes"/>
      <point x="99" y="8"/>
      <point x="108" y="15"/>
      <point x="116" y="15" type="curve" smooth="yes"/>
      <point x="124" y="15"/>
      <point x="149" y="7"/>
      <point x="180" y="-1" type="curve" smooth="yes"/>
      <point x="208" y="-8"/>
      <point x="242" y="-14"/>
    </contour>
    <contour>
      <point x="295" y="28" type="curve" smooth="yes"/>
      <point x="222" y="28"/>
      <point x="152" y="69"/>
      <point x="152" y="133" type="curve" smooth="yes"/>
      <point x="152" y="311" type="line"/>
      <point x="183" y="335"/>
      <point x="224" y="353"/>
      <point x="279" y="353" type="curve" smooth="yes"/>
      <point x="378" y="353"/>
      <point x="422" y="262"/>
      <point x="422" y="191" type="curve" smooth="yes"/>
      <point x="422" y="99"/>
      <point x="374" y="28"/>
    </contour>
  </outline>
</glyph>
<glyph name="c" format="1">
  <advance width="423"/>
  <unicode hex="0063"/>
  <outline>
    <contour>
      <point x="224" y="-15" type="curve" smooth="yes"/>
      <point x="287" y="-15"/>
      <point x="339" y="7"/>
      <point x="372" y="48" type="curve" smooth="yes"/>
      <point x="382" y="61"/>
      <point x="388" y="74"/>
      <point x="388" y="82" type="curve" smooth="yes"/>
      <point x="388" y="91"/>
      <point x="384" y="96"/>
      <point x="378" y="96" type="curve" smooth="yes"/>
      <point x="375" y="96"/>
      <point x="370" y="94"/>
      <point x="366" y="91" type="curve" smooth="yes"/>
      <point x="334" y="59"/>
      <point x="309" y="49"/>
      <point x="268" y="49" type="curve" smooth="yes"/>
      <point x="181" y="49"/>
      <point x="111" y="117"/>
      <point x="111" y="207" type="curve" smooth="yes"/>
      <point x="111" y="299"/>
      <point x="158" y="363"/>
      <point x="225" y="363" type="curve" smooth="yes"/>
      <point x="250" y="363"/>
      <point x="291" y="339"/>
      <point x="321" y="318" type="curve" smooth="yes"/>
      <point x="330" y="312"/>
      <point x="337" y="307"/>
      <point x="344" y="307" type="curve" smooth="yes"/>
      <point x="362" y="307"/>
      <point x="389" y="329"/>
      <point x="389" y="350" type="curve" smooth="yes"/>
      <point x="389" y="361"/>
      <point x="384" y="368"/>
      <point x="375" y="374" type="curve" smooth="yes"/>
      <point x="342" y="397"/>
      <point x="302" y="409"/>
      <point x="258" y="409" type="curve" smooth="yes"/>
      <point x="135" y="409"/>
      <point x="36" y="306"/>
      <point x="36" y="178" type="curve" smooth="yes"/>
      <point x="36" y="68"/>
      <point x="117" y="-15"/>
    </contour>
  </outline>
</glyph>
<glyph name="d" format="1">
  <advance width="531"/>
  <unicode hex="0064"/>
  <outline>
    <contour>
      <point x="376" y="-19" type="curve" smooth="yes"/>
      <point x="380" y="-19"/>
      <point x="381" y="-19"/>
      <point x="393" y="-13" type="curve" smooth="yes"/>
      <point x="442" y="7"/>
      <point x="477" y="16"/>
      <point x="512" y="20" type="curve" smooth="yes"/>
      <point x="522" y="21"/>
      <point x="529" y="33"/>
      <point x="529" y="46" type="curve" smooth="yes"/>
      <point x="529" y="56"/>
      <point x="522" y="60"/>
      <point x="509" y="59" type="curve" smooth="yes"/>
      <point x="491" y="57"/>
      <point x="475" y="55"/>
      <point x="468" y="55" type="curve" smooth="yes"/>
      <point x="453" y="55"/>
      <point x="447" y="79"/>
      <point x="447" y="118" type="curve" smooth="yes"/>
      <point x="447" y="611" type="line" smooth="yes"/>
      <point x="447" y="701"/>
      <point x="455" y="735"/>
      <point x="454" y="747" type="curve"/>
      <point x="453" y="751"/>
      <point x="451" y="753"/>
      <point x="447" y="753" type="curve" smooth="yes"/>
      <point x="444" y="753"/>
      <point x="439" y="752"/>
      <point x="433" y="750" type="curve" smooth="yes"/>
      <point x="413" y="742"/>
      <point x="382" y="732"/>
      <point x="323" y="717" type="curve" smooth="yes"/>
      <point x="314" y="715"/>
      <point x="311" y="709"/>
      <point x="311" y="701" type="curve" smooth="yes"/>
      <point x="311" y="694"/>
      <point x="315" y="686"/>
      <point x="322" y="684" type="curve" smooth="yes"/>
      <point x="354" y="675"/>
      <point x="371" y="664"/>
      <point x="371" y="609" type="curve" smooth="yes"/>
      <point x="371" y="419" type="line" smooth="yes"/>
      <point x="371" y="401"/>
      <point x="366" y="395"/>
      <point x="363" y="395" type="curve" smooth="yes"/>
      <point x="360" y="395"/>
      <point x="356" y="396"/>
      <point x="350" y="398" type="curve" smooth="yes"/>
      <point x="334" y="403"/>
      <point x="302" y="409"/>
      <point x="274" y="409" type="curve" smooth="yes"/>
      <point x="126" y="409"/>
      <point x="36" y="302"/>
      <point x="36" y="188" type="curve" smooth="yes"/>
      <point x="36" y="88"/>
      <point x="111" y="-14"/>
      <point x="231" y="-14" type="curve" smooth="yes"/>
      <point x="301" y="-14"/>
      <point x="348" y="26"/>
      <point x="370" y="56" type="curve"/>
      <point x="370" y="50" type="line" smooth="yes"/>
      <point x="370" y="33"/>
      <point x="364" y="4"/>
      <point x="364" y="-9" type="curve" smooth="yes"/>
      <point x="364" y="-12"/>
      <point x="373" y="-19"/>
    </contour>
    <contour>
      <point x="271" y="48" type="curve" smooth="yes"/>
      <point x="225" y="48"/>
      <point x="115" y="71"/>
      <point x="115" y="210" type="curve" smooth="yes"/>
      <point x="115" y="334"/>
      <point x="195" y="364"/>
      <point x="243" y="364" type="curve" smooth="yes"/>
      <point x="331" y="364"/>
      <point x="371" y="315"/>
      <point x="371" y="261" type="curve" smooth="yes"/>
      <point x="370" y="94" type="line"/>
      <point x="344" y="67"/>
      <point x="307" y="48"/>
    </contour>
  </outline>
</glyph>
<glyph name="e" format="1">
  <advance width="410"/>
  <unicode hex="0065"/>
  <outline>
    <contour>
      <point x="225" y="-15" type="curve" smooth="yes"/>
      <point x="276" y="-15"/>
      <point x="326" y="3"/>
      <point x="358" y="35" type="curve" smooth="yes"/>
      <point x="376" y="51"/>
      <point x="387" y="72"/>
      <point x="387" y="93" type="curve" smooth="yes"/>
      <point x="387" y="101"/>
      <point x="384" y="106"/>
      <point x="377" y="106" type="curve" smooth="yes"/>
      <point x="371" y="106"/>
      <point x="369" y="104"/>
      <point x="361" y="94" type="curve" smooth="yes"/>
      <point x="336" y="63"/>
      <point x="302" y="46"/>
      <point x="262" y="46" type="curve" smooth="yes"/>
      <point x="172" y="46"/>
      <point x="101" y="120"/>
      <point x="101" y="212" type="curve" smooth="yes"/>
      <point x="101" y="240"/>
      <point x="108" y="247"/>
      <point x="127" y="247" type="curve" smooth="yes"/>
      <point x="348" y="247" type="line" smooth="yes"/>
      <point x="370" y="247"/>
      <point x="379" y="258"/>
      <point x="379" y="280" type="curve" smooth="yes"/>
      <point x="379" y="356"/>
      <point x="320" y="409"/>
      <point x="235" y="409" type="curve" smooth="yes"/>
      <point x="124" y="409"/>
      <point x="31" y="314"/>
      <point x="31" y="200" type="curve" smooth="yes"/>
      <point x="31" y="71"/>
      <point x="108" y="-15"/>
    </contour>
    <contour>
      <point x="132" y="285" type="line" smooth="yes"/>
      <point x="124" y="285"/>
      <point x="120" y="287"/>
      <point x="120" y="293" type="curve" smooth="yes"/>
      <point x="120" y="328"/>
      <point x="173" y="369"/>
      <point x="220" y="369" type="curve" smooth="yes"/>
      <point x="268" y="369"/>
      <point x="307" y="341"/>
      <point x="307" y="308" type="curve" smooth="yes"/>
      <point x="307" y="296"/>
      <point x="305" y="290"/>
      <point x="299" y="289" type="curve" smooth="yes"/>
      <point x="277" y="286"/>
      <point x="256" y="285"/>
      <point x="224" y="285" type="curve" smooth="yes"/>
    </contour>
  </outline>
</glyph>
<glyph name="f" format="1">
  <advance width="332"/>
  <unicode hex="0066"/>
  <outline>
    <contour>
      <point x="45" y="-3" type="curve" smooth="yes"/>
      <point x="87" y="-3"/>
      <point x="94" y="2"/>
      <point x="131" y="2" type="curve" smooth="yes"/>
      <point x="168" y="2"/>
      <point x="196" y="-3"/>
      <point x="238" y="-3" type="curve" smooth="yes"/>
      <point x="249" y="-3"/>
      <point x="259" y="0"/>
      <point x="259" y="10" type="curve" smooth="yes"/>
      <point x="259" y="23"/>
      <point x="248" y="29"/>
      <point x="235" y="32" type="curve" smooth="yes"/>
      <point x="192" y="40"/>
      <point x="168" y="49"/>
      <point x="168" y="81" type="curve" smooth="yes"/>
      <point x="168" y="324" type="line" smooth="yes"/>
      <point x="168" y="332"/>
      <point x="171" y="337"/>
      <point x="188" y="337" type="curve" smooth="yes"/>
      <point x="292" y="337" type="line" smooth="yes"/>
      <point x="301" y="337"/>
      <point x="307" y="340"/>
      <point x="311" y="347" type="curve" smooth="yes"/>
      <point x="315" y="355"/>
      <point x="320" y="375"/>
      <point x="320" y="384" type="curve" smooth="yes"/>
      <point x="320" y="390"/>
      <point x="314" y="395"/>
      <point x="306" y="395" type="curve" smooth="yes"/>
      <point x="179" y="395" type="line" smooth="yes"/>
      <point x="173" y="395"/>
      <point x="168" y="397"/>
      <point x="168" y="405" type="curve" smooth="yes"/>
      <point x="168" y="535" type="line" smooth="yes"/>
      <point x="168" y="651"/>
      <point x="214" y="706"/>
      <point x="279" y="706" type="curve" smooth="yes"/>
      <point x="325" y="706"/>
      <point x="346" y="688"/>
      <point x="364" y="672" type="curve" smooth="yes"/>
      <point x="378" y="660"/>
      <point x="387" y="650"/>
      <point x="399" y="650" type="curve" smooth="yes"/>
      <point x="419" y="650"/>
      <point x="436" y="663"/>
      <point x="436" y="688" type="curve" smooth="yes"/>
      <point x="436" y="727"/>
      <point x="399" y="755"/>
      <point x="321" y="755" type="curve" smooth="yes"/>
      <point x="232" y="755"/>
      <point x="91" y="692"/>
      <point x="91" y="477" type="curve" smooth="yes"/>
      <point x="91" y="401" type="line"/>
      <point x="71" y="391"/>
      <point x="56" y="380"/>
      <point x="34" y="366" type="curve" smooth="yes"/>
      <point x="30" y="363"/>
      <point x="25" y="359"/>
      <point x="25" y="354" type="curve" smooth="yes"/>
      <point x="25" y="347"/>
      <point x="35" y="337"/>
      <point x="39" y="337" type="curve"/>
      <point x="60" y="335"/>
      <point x="78" y="335"/>
      <point x="91" y="335" type="curve"/>
      <point x="91" y="81" type="line" smooth="yes"/>
      <point x="91" y="49"/>
      <point x="76" y="40"/>
      <point x="48" y="32" type="curve" smooth="yes"/>
      <point x="35" y="28"/>
      <point x="25" y="23"/>
      <point x="25" y="10" type="curve" smooth="yes"/>
      <point x="25" y="0"/>
      <point x="34" y="-3"/>
    </contour>
  </outline>
</glyph>
<glyph name="k" format="1">
  <advance width="496"/>
  <unicode hex="006B"/>
  <outline>
    <contour>
      <point x="43" y="-3" type="curve" smooth="yes"/>
      <point x="84" y="-3"/>
      <point x="88" y="3"/>
      <point x="125" y="3" type="curve" smooth="yes"/>
      <point x="161" y="3"/>
      <point x="157" y="-3"/>
      <point x="198" y="-3" type="curve" smooth="yes"/>
      <point x="203" y="-3"/>
      <point x="223" y="-2"/>
      <point x="223" y="12" type="curve" smooth="yes"/>
      <point x="223" y="26"/>
      <point x="211" y="29"/>
      <point x="199" y="34" type="curve" smooth="yes"/>
      <point x="177" y="41"/>
      <point x="163" y="52"/>
      <point x="163" y="83" type="curve" smooth="yes"/>
      <point x="162" y="102"/>
      <point x="162" y="121"/>
      <point x="162" y="138" type="curve" smooth="yes"/>
      <point x="162" y="160"/>
      <point x="162" y="178"/>
      <point x="163" y="196" type="curve"/>
      <point x="163" y="201"/>
      <point x="165" y="203"/>
      <point x="168" y="203" type="curve" smooth="yes"/>
      <point x="172" y="203"/>
      <point x="174" y="201"/>
      <point x="178" y="196" type="curve" smooth="yes"/>
      <point x="302" y="65" type="line"/>
      <point x="306" y="60"/>
      <point x="309" y="56"/>
      <point x="309" y="52" type="curve" smooth="yes"/>
      <point x="309" y="42"/>
      <point x="298" y="37"/>
      <point x="285" y="33" type="curve" smooth="yes"/>
      <point x="276" y="29"/>
      <point x="267" y="25"/>
      <point x="267" y="14" type="curve" smooth="yes"/>
      <point x="267" y="8"/>
      <point x="272" y="1"/>
      <point x="286" y="1" type="curve" smooth="yes"/>
      <point x="359" y="1"/>
      <point x="429" y="-3"/>
      <point x="484" y="-3" type="curve" smooth="yes"/>
      <point x="497" y="-3"/>
      <point x="506" y="0"/>
      <point x="506" y="11" type="curve" smooth="yes"/>
      <point x="506" y="24"/>
      <point x="490" y="30"/>
      <point x="475" y="34" type="curve" smooth="yes"/>
      <point x="445" y="43"/>
      <point x="410" y="61"/>
      <point x="384" y="87" type="curve" smooth="yes"/>
      <point x="362" y="106"/>
      <point x="303" y="163"/>
      <point x="250" y="223" type="curve" smooth="yes"/>
      <point x="248" y="225"/>
      <point x="247" y="228"/>
      <point x="247" y="230" type="curve" smooth="yes"/>
      <point x="247" y="233"/>
      <point x="249" y="236"/>
      <point x="253" y="240" type="curve" smooth="yes"/>
      <point x="301" y="282"/>
      <point x="374" y="335"/>
      <point x="387" y="343" type="curve" smooth="yes"/>
      <point x="404" y="354"/>
      <point x="426" y="365"/>
      <point x="450" y="373" type="curve" smooth="yes"/>
      <point x="464" y="377"/>
      <point x="475" y="385"/>
      <point x="475" y="395" type="curve" smooth="yes"/>
      <point x="475" y="402"/>
      <point x="470" y="407"/>
      <point x="461" y="407" type="curve" smooth="yes"/>
      <point x="441" y="407"/>
      <point x="400" y="395"/>
      <point x="368" y="395" type="curve" smooth="yes"/>
      <point x="312" y="395" type="line" smooth="yes"/>
      <point x="298" y="395"/>
      <point x="290" y="389"/>
      <point x="290" y="380" type="curve" smooth="yes"/>
      <point x="290" y="372"/>
      <point x="293" y="369"/>
      <point x="302" y="367" type="curve" smooth="yes"/>
      <point x="314" y="365"/>
      <point x="325" y="360"/>
      <point x="325" y="354" type="curve" smooth="yes"/>
      <point x="325" y="351"/>
      <point x="323" y="348"/>
      <point x="316" y="342" type="curve" smooth="yes"/>
      <point x="303" y="328"/>
      <point x="264" y="294"/>
      <point x="204" y="247" type="curve" smooth="yes"/>
      <point x="189" y="235"/>
      <point x="176" y="228"/>
      <point x="168" y="228" type="curve" smooth="yes"/>
      <point x="165" y="228"/>
      <point x="163" y="231"/>
      <point x="163" y="237" type="curve" smooth="yes"/>
      <point x="163" y="611" type="line" smooth="yes"/>
      <point x="163" y="696"/>
      <point x="172" y="731"/>
      <point x="172" y="745" type="curve" smooth="yes"/>
      <point x="172" y="751"/>
      <point x="170" y="754"/>
      <point x="166" y="754" type="curve" smooth="yes"/>
      <point x="162" y="754"/>
      <point x="160" y="753"/>
      <point x="156" y="751" type="curve" smooth="yes"/>
      <point x="124" y="739"/>
      <point x="95" y="728"/>
      <point x="46" y="718" type="curve" smooth="yes"/>
      <point x="36" y="716"/>
      <point x="32" y="710"/>
      <point x="32" y="701" type="curve" smooth="yes"/>
      <point x="32" y="692"/>
      <point x="35" y="686"/>
      <point x="44" y="684" type="curve" smooth="yes"/>
      <point x="74" y="677"/>
      <point x="86" y="658"/>
      <point x="86" y="610" type="curve" smooth="yes"/>
      <point x="86" y="83" type="line" smooth="yes"/>
      <point x="86" y="50"/>
      <point x="63" y="41"/>
      <point x="43" y="34" type="curve" smooth="yes"/>
      <point x="32" y="29"/>
      <point x="19" y="27"/>
      <point x="19" y="12" type="curve" smooth="yes"/>
      <point x="19" y="1"/>
      <point x="28" y="-3"/>
    </contour>
  </outline>
</glyph>
<glyph name="m" format="1">
  <advance width="815"/>
  <unicode hex="006D"/>
  <outline>
    <contour>
      <point x="47" y="-3" type="curve" smooth="yes"/>
      <point x="88" y="-3"/>
      <point x="93" y="2"/>
      <point x="129" y="2" type="curve" smooth="yes"/>
      <point x="166" y="2"/>
      <point x="171" y="-3"/>
      <point x="213" y="-3" type="curve" smooth="yes"/>
      <point x="225" y="-3"/>
      <point x="234" y="1"/>
      <point x="234" y="12" type="curve" smooth="yes"/>
      <point x="234" y="25"/>
      <point x="222" y="29"/>
      <point x="210" y="33" type="curve" smooth="yes"/>
      <point x="190" y="39"/>
      <point x="168" y="46"/>
      <point x="168" y="77" type="curve" smooth="yes"/>
      <point x="168" y="260" type="line" smooth="yes"/>
      <point x="168" y="290"/>
      <point x="176" y="310"/>
      <point x="196" y="323" type="curve" smooth="yes"/>
      <point x="222" y="340"/>
      <point x="251" y="346"/>
      <point x="286" y="346" type="curve" smooth="yes"/>
      <point x="331" y="346"/>
      <point x="370" y="305"/>
      <point x="370" y="263" type="curve" smooth="yes"/>
      <point x="370" y="77" type="line" smooth="yes"/>
      <point x="370" y="45"/>
      <point x="345" y="40"/>
      <point x="325" y="33" type="curve" smooth="yes"/>
      <point x="313" y="29"/>
      <point x="302" y="25"/>
      <point x="302" y="12" type="curve" smooth="yes"/>
      <point x="302" y="1"/>
      <point x="311" y="-3"/>
      <point x="323" y="-3" type="curve" smooth="yes"/>
      <point x="364" y="-3"/>
      <point x="373" y="2"/>
      <point x="409" y="2" type="curve" smooth="yes"/>
      <point x="445" y="2"/>
      <point x="452" y="-3"/>
      <point x="494" y="-3" type="curve" smooth="yes"/>
      <point x="507" y="-3"/>
      <point x="515" y="1"/>
      <point x="515" y="12" type="curve" smooth="yes"/>
      <point x="515" y="23"/>
      <point x="505" y="29"/>
      <point x="491" y="33" type="curve" smooth="yes"/>
      <point x="471" y="39"/>
      <point x="446" y="45"/>
      <point x="446" y="77" type="curve" smooth="yes"/>
      <point x="446" y="260" type="line" smooth="yes"/>
      <point x="446" y="290"/>
      <point x="456" y="310"/>
      <point x="475" y="323" type="curve" smooth="yes"/>
      <point x="501" y="340"/>
      <point x="530" y="346"/>
      <point x="566" y="346" type="curve" smooth="yes"/>
      <point x="610" y="346"/>
      <point x="649" y="305"/>
      <point x="649" y="263" type="curve" smooth="yes"/>
      <point x="649" y="77" type="line" smooth="yes"/>
      <point x="649" y="47"/>
      <point x="626" y="39"/>
      <point x="605" y="33" type="curve" smooth="yes"/>
      <point x="592" y="29"/>
      <point x="582" y="25"/>
      <point x="582" y="12" type="curve" smooth="yes"/>
      <point x="582" y="1"/>
      <point x="590" y="-3"/>
      <point x="603" y="-3" type="curve" smooth="yes"/>
      <point x="644" y="-3"/>
      <point x="653" y="2"/>
      <point x="689" y="2" type="curve" smooth="yes"/>
      <point x="725" y="2"/>
      <point x="729" y="-3"/>
      <point x="771" y="-3" type="curve" smooth="yes"/>
      <point x="787" y="-3"/>
      <point x="792" y="1"/>
      <point x="792" y="12" type="curve" smooth="yes"/>
      <point x="792" y="23"/>
      <point x="782" y="28"/>
      <point x="769" y="33" type="curve" smooth="yes"/>
      <point x="748" y="41"/>
      <point x="725" y="47"/>
      <point x="725" y="77" type="curve" smooth="yes"/>
      <point x="725" y="270" type="line" smooth="yes"/>
      <point x="725" y="340"/>
      <point x="688" y="409"/>
      <point x="620" y="409" type="curve" smooth="yes"/>
      <point x="551" y="409"/>
      <point x="493" y="378"/>
      <point x="448" y="341" type="curve"/>
      <point x="445" y="341" type="line"/>
      <point x="423" y="391"/>
      <point x="390" y="409"/>
      <point x="339" y="409" type="curve" smooth="yes"/>
      <point x="258" y="409"/>
      <point x="206" y="371"/>
      <point x="175" y="342" type="curve"/>
      <point x="173" y="342" type="line"/>
      <point x="172" y="343"/>
      <point x="171" y="348"/>
      <point x="171" y="354" type="curve" smooth="yes"/>
      <point x="171" y="373"/>
      <point x="176" y="406"/>
      <point x="176" y="415" type="curve" smooth="yes"/>
      <point x="176" y="420"/>
      <point x="171" y="425"/>
      <point x="166" y="425" type="curve" smooth="yes"/>
      <point x="160" y="425"/>
      <point x="156" y="421"/>
      <point x="151" y="418" type="curve" smooth="yes"/>
      <point x="119" y="399"/>
      <point x="103" y="384"/>
      <point x="56" y="373" type="curve" smooth="yes"/>
      <point x="48" y="371"/>
      <point x="44" y="365"/>
      <point x="44" y="357" type="curve" smooth="yes"/>
      <point x="44" y="349"/>
      <point x="47" y="343"/>
      <point x="54" y="341" type="curve" smooth="yes"/>
      <point x="87" y="335"/>
      <point x="91" y="305"/>
      <point x="91" y="267" type="curve" smooth="yes"/>
      <point x="91" y="77" type="line" smooth="yes"/>
      <point x="91" y="46"/>
      <point x="68" y="39"/>
      <point x="49" y="33" type="curve" smooth="yes"/>
      <point x="35" y="29"/>
      <point x="25" y="24"/>
      <point x="25" y="12" type="curve" smooth="yes"/>
      <point x="25" y="-1"/>
      <point x="35" y="-3"/>
    </contour>
  </outline>
</glyph>
<glyph name="n" format="1">
  <advance width="554"/>
  <unicode hex="006E"/>
  <outline>
    <contour>
      <point x="45" y="-3" type="curve" smooth="yes"/>
      <point x="87" y="-3"/>
      <point x="93" y="4"/>
      <point x="129" y="4" type="curve" smooth="yes"/>
      <point x="166" y="4"/>
      <point x="172" y="-3"/>
      <point x="214" y="-3" type="curve" smooth="yes"/>
      <point x="227" y="-3"/>
      <point x="234" y="1"/>
      <point x="234" y="12" type="curve" smooth="yes"/>
      <point x="234" y="23"/>
      <point x="227" y="28"/>
      <point x="211" y="33" type="curve" smooth="yes"/>
      <point x="191" y="39"/>
      <point x="168" y="46"/>
      <point x="168" y="77" type="curve" smooth="yes"/>
      <point x="168" y="282" type="line" smooth="yes"/>
      <point x="168" y="290"/>
      <point x="171" y="300"/>
      <point x="176" y="305" type="curve" smooth="yes"/>
      <point x="205" y="330"/>
      <point x="242" y="345"/>
      <point x="293" y="345" type="curve" smooth="yes"/>
      <point x="350" y="344"/>
      <point x="387" y="309"/>
      <point x="387" y="251" type="curve" smooth="yes"/>
      <point x="387" y="77" type="line" smooth="yes"/>
      <point x="387" y="46"/>
      <point x="364" y="40"/>
      <point x="344" y="33" type="curve" smooth="yes"/>
      <point x="333" y="28"/>
      <point x="321" y="23"/>
      <point x="321" y="9" type="curve" smooth="yes"/>
      <point x="321" y="-2"/>
      <point x="334" y="-3"/>
      <point x="342" y="-3" type="curve" smooth="yes"/>
      <point x="383" y="-3"/>
      <point x="390" y="4"/>
      <point x="427" y="4" type="curve" smooth="yes"/>
      <point x="463" y="4"/>
      <point x="468" y="-3"/>
      <point x="510" y="-3" type="curve" smooth="yes"/>
      <point x="518" y="-3"/>
      <point x="531" y="-2"/>
      <point x="531" y="9" type="curve" smooth="yes"/>
      <point x="531" y="23"/>
      <point x="519" y="28"/>
      <point x="507" y="33" type="curve"/>
      <point x="487" y="40"/>
      <point x="464" y="46"/>
      <point x="464" y="77" type="curve" smooth="yes"/>
      <point x="464" y="254" type="line" smooth="yes"/>
      <point x="464" y="341"/>
      <point x="413" y="409"/>
      <point x="344" y="409" type="curve" smooth="yes"/>
      <point x="277" y="409"/>
      <point x="222" y="387"/>
      <point x="173" y="341" type="curve"/>
      <point x="172" y="341"/>
      <point x="171" y="350"/>
      <point x="171" y="358" type="curve" smooth="yes"/>
      <point x="171" y="377"/>
      <point x="176" y="407"/>
      <point x="176" y="417" type="curve" smooth="yes"/>
      <point x="176" y="422"/>
      <point x="174" y="425"/>
      <point x="171" y="425" type="curve" smooth="yes"/>
      <point x="167" y="425"/>
      <point x="164" y="423"/>
      <point x="159" y="420" type="curve" smooth="yes"/>
      <point x="131" y="401"/>
      <point x="104" y="385"/>
      <point x="57" y="374" type="curve" smooth="yes"/>
      <point x="48" y="372"/>
      <point x="44" y="367"/>
      <point x="44" y="358" type="curve" smooth="yes"/>
      <point x="44" y="347"/>
      <point x="49" y="343"/>
      <point x="58" y="340" type="curve" smooth="yes"/>
      <point x="88" y="332"/>
      <point x="91" y="306"/>
      <point x="91" y="272" type="curve" smooth="yes"/>
      <point x="91" y="77" type="line" smooth="yes"/>
      <point x="91" y="46"/>
      <point x="68" y="39"/>
      <point x="48" y="33" type="curve" smooth="yes"/>
      <point x="33" y="28"/>
      <point x="25" y="25"/>
      <point x="25" y="12" type="curve" smooth="yes"/>
      <point x="25" y="1"/>
      <point x="33" y="-3"/>
    </contour>
  </outline>
</glyph>
<glyph name="o" format="1">
  <advance width="520"/>
  <unicode hex="006F"/>
  <outline>
    <contour>
      <point x="246" y="-14" type="curve" smooth="yes"/>
      <point x="386" y="-14"/>
      <point x="484" y="78"/>
      <point x="484" y="210" type="curve" smooth="yes"/>
      <point x="484" y="320"/>
      <point x="386" y="409"/>
      <point x="267" y="409" type="curve" smooth="yes"/>
      <point x="145" y="409"/>
      <point x="36" y="303"/>
      <point x="36" y="185" type="curve" smooth="yes"/>
      <point x="36" y="71"/>
      <point x="125" y="-14"/>
    </contour>
    <contour>
      <point x="268" y="27" type="curve" smooth="yes"/>
      <point x="189" y="27"/>
      <point x="124" y="108"/>
      <point x="124" y="207" type="curve" smooth="yes"/>
      <point x="124" y="315"/>
      <point x="165" y="367"/>
      <point x="249" y="367" type="curve" smooth="yes"/>
      <point x="329" y="367"/>
      <point x="396" y="286"/>
      <point x="396" y="187" type="curve" smooth="yes"/>
      <point x="396" y="75"/>
      <point x="357" y="27"/>
    </contour>
  </outline>
</glyph>
<glyph name="p" format="1">
  <advance width="545"/>
  <unicode hex="0070"/>
  <outline>
    <contour>
      <point x="41" y="-314" type="curve" smooth="yes"/>
      <point x="82" y="-314"/>
      <point x="88" y="-309"/>
      <point x="124" y="-309" type="curve" smooth="yes"/>
      <point x="161" y="-309"/>
      <point x="181" y="-314"/>
      <point x="222" y="-314" type="curve" smooth="yes"/>
      <point x="232" y="-314"/>
      <point x="244" y="-311"/>
      <point x="244" y="-299" type="curve" smooth="yes"/>
      <point x="244" y="-290"/>
      <point x="234" y="-284"/>
      <point x="221" y="-280" type="curve"/>
      <point x="201" y="-274"/>
      <point x="163" y="-268"/>
      <point x="163" y="-236" type="curve" smooth="yes"/>
      <point x="163" y="-33" type="line" smooth="yes"/>
      <point x="163" y="-27"/>
      <point x="164" y="18"/>
      <point x="167" y="18" type="curve"/>
      <point x="188" y="0"/>
      <point x="243" y="-14"/>
      <point x="272" y="-14" type="curve" smooth="yes"/>
      <point x="405" y="-14"/>
      <point x="509" y="105"/>
      <point x="509" y="222" type="curve" smooth="yes"/>
      <point x="509" y="315"/>
      <point x="445" y="409"/>
      <point x="336" y="409" type="curve" smooth="yes"/>
      <point x="270" y="409"/>
      <point x="186" y="363"/>
      <point x="166" y="344" type="curve"/>
      <point x="165" y="345"/>
      <point x="165" y="349"/>
      <point x="165" y="353" type="curve" smooth="yes"/>
      <point x="165" y="369"/>
      <point x="170" y="400"/>
      <point x="170" y="412" type="curve" smooth="yes"/>
      <point x="170" y="416"/>
      <point x="167" y="421"/>
      <point x="164" y="421" type="curve" smooth="yes"/>
      <point x="163" y="421"/>
      <point x="163" y="420"/>
      <point x="162" y="420" type="curve"/>
      <point x="129" y="408"/>
      <point x="95" y="396"/>
      <point x="44" y="384" type="curve" smooth="yes"/>
      <point x="37" y="383"/>
      <point x="32" y="376"/>
      <point x="32" y="368" type="curve" smooth="yes"/>
      <point x="32" y="360"/>
      <point x="37" y="353"/>
      <point x="45" y="351" type="curve" smooth="yes"/>
      <point x="75" y="344"/>
      <point x="86" y="297"/>
      <point x="86" y="282" type="curve" smooth="yes"/>
      <point x="86" y="-236" type="line" smooth="yes"/>
      <point x="86" y="-264"/>
      <point x="63" y="-273"/>
      <point x="43" y="-280" type="curve"/>
      <point x="31" y="-284"/>
      <point x="20" y="-289"/>
      <point x="20" y="-299" type="curve" smooth="yes"/>
      <point x="20" y="-311"/>
      <point x="31" y="-314"/>
    </contour>
    <contour>
      <point x="287" y="28" type="curve" smooth="yes"/>
      <point x="222" y="28"/>
      <point x="163" y="83"/>
      <point x="163" y="164" type="curve" smooth="yes"/>
      <point x="163" y="186"/>
      <point x="166" y="250"/>
      <point x="166" y="303" type="curve" smooth="yes"/>
      <point x="166" y="316"/>
      <point x="230" y="351"/>
      <point x="281" y="351" type="curve" smooth="yes"/>
      <point x="339" y="351"/>
      <point x="423" y="325"/>
      <point x="423" y="189" type="curve" smooth="yes"/>
      <point x="423" y="68"/>
      <point x="330" y="28"/>
    </contour>
  </outline>
</glyph>
<glyph name="s" format="1">
  <advance width="339"/>
  <unicode hex="0073"/>
  <outline>
    <contour>
      <point x="151" y="-14" type="curve" smooth="yes"/>
      <point x="243" y="-14"/>
      <point x="306" y="35"/>
      <point x="306" y="107" type="curve" smooth="yes"/>
      <point x="306" y="168"/>
      <point x="267" y="199"/>
      <point x="188" y="242" type="curve" smooth="yes"/>
      <point x="135" y="272"/>
      <point x="121" y="289"/>
      <point x="121" y="317" type="curve" smooth="yes"/>
      <point x="121" y="351"/>
      <point x="150" y="370"/>
      <point x="183" y="370" type="curve" smooth="yes"/>
      <point x="224" y="370"/>
      <point x="246" y="349"/>
      <point x="263" y="309" type="curve" smooth="yes"/>
      <point x="266" y="304"/>
      <point x="274" y="299"/>
      <point x="284" y="299" type="curve" smooth="yes"/>
      <point x="290" y="299"/>
      <point x="296" y="303"/>
      <point x="296" y="307" type="curve" smooth="yes"/>
      <point x="296" y="336"/>
      <point x="287" y="375"/>
      <point x="276" y="390" type="curve"/>
      <point x="263" y="399"/>
      <point x="234" y="409"/>
      <point x="191" y="409" type="curve" smooth="yes"/>
      <point x="95" y="409"/>
      <point x="48" y="359"/>
      <point x="48" y="295" type="curve" smooth="yes"/>
      <point x="48" y="246"/>
      <point x="75" y="213"/>
      <point x="146" y="172" type="curve" smooth="yes"/>
      <point x="207" y="138"/>
      <point x="226" y="117"/>
      <point x="226" y="84" type="curve" smooth="yes"/>
      <point x="226" y="49"/>
      <point x="197" y="25"/>
      <point x="157" y="25" type="curve" smooth="yes"/>
      <point x="115" y="25"/>
      <point x="76" y="45"/>
      <point x="61" y="104" type="curve"/>
      <point x="59" y="112"/>
      <point x="52" y="115"/>
      <point x="46" y="115" type="curve" smooth="yes"/>
      <point x="37" y="115"/>
      <point x="29" y="112"/>
      <point x="29" y="104" type="curve"/>
      <point x="30" y="78"/>
      <point x="34" y="35"/>
      <point x="41" y="22" type="curve"/>
      <point x="67" y="-1"/>
      <point x="107" y="-14"/>
    </contour>
  </outline>
</glyph>
<glyph name="u" format="1">
  <advance width="553"/>
  <unicode hex="0075"/>
  <outline>
    <contour>
      <point x="385" y="-19" type="curve" smooth="yes"/>
      <point x="391" y="-19"/>
      <point x="401" y="-15"/>
      <point x="405" y="-14" type="curve"/>
      <point x="436" y="-3"/>
      <point x="473" y="13"/>
      <point x="526" y="17" type="curve" smooth="yes"/>
      <point x="537" y="18"/>
      <point x="542" y="23"/>
      <point x="542" y="35" type="curve" smooth="yes"/>
      <point x="542" y="49"/>
      <point x="534" y="52"/>
      <point x="525" y="52" type="curve" smooth="yes"/>
      <point x="515" y="52"/>
      <point x="491" y="49"/>
      <point x="481" y="49" type="curve" smooth="yes"/>
      <point x="471" y="49"/>
      <point x="463" y="62"/>
      <point x="463" y="103" type="curve" smooth="yes"/>
      <point x="463" y="321" type="line" smooth="yes"/>
      <point x="463" y="337"/>
      <point x="468" y="383"/>
      <point x="470" y="390" type="curve" smooth="yes"/>
      <point x="471" y="394"/>
      <point x="472" y="397"/>
      <point x="472" y="399" type="curve" smooth="yes"/>
      <point x="472" y="406"/>
      <point x="466" y="410"/>
      <point x="459" y="410" type="curve" smooth="yes"/>
      <point x="456" y="410"/>
      <point x="451" y="409"/>
      <point x="448" y="408" type="curve"/>
      <point x="410" y="399"/>
      <point x="383" y="395"/>
      <point x="320" y="394" type="curve" smooth="yes"/>
      <point x="307" y="394"/>
      <point x="298" y="388"/>
      <point x="298" y="375" type="curve" smooth="yes"/>
      <point x="298" y="360"/>
      <point x="307" y="357"/>
      <point x="321" y="357" type="curve" smooth="yes"/>
      <point x="350" y="357"/>
      <point x="386" y="345"/>
      <point x="386" y="303" type="curve" smooth="yes"/>
      <point x="386" y="146" type="line" smooth="yes"/>
      <point x="386" y="105"/>
      <point x="361" y="83"/>
      <point x="339" y="70" type="curve" smooth="yes"/>
      <point x="313" y="54"/>
      <point x="287" y="52"/>
      <point x="251" y="52" type="curve" smooth="yes"/>
      <point x="202" y="52"/>
      <point x="163" y="94"/>
      <point x="163" y="142" type="curve" smooth="yes"/>
      <point x="163" y="318" type="line" smooth="yes"/>
      <point x="163" y="348"/>
      <point x="165" y="364"/>
      <point x="169" y="395" type="curve" smooth="yes"/>
      <point x="170" y="406"/>
      <point x="165" y="409"/>
      <point x="158" y="409" type="curve" smooth="yes"/>
      <point x="155" y="409"/>
      <point x="154" y="409"/>
      <point x="150" y="408" type="curve" smooth="yes"/>
      <point x="111" y="399"/>
      <point x="93" y="395"/>
      <point x="45" y="392" type="curve" smooth="yes"/>
      <point x="37" y="391"/>
      <point x="30" y="386"/>
      <point x="30" y="373" type="curve" smooth="yes"/>
      <point x="30" y="360"/>
      <point x="36" y="357"/>
      <point x="46" y="353" type="curve"/>
      <point x="73" y="341"/>
      <point x="87" y="326"/>
      <point x="87" y="290" type="curve" smooth="yes"/>
      <point x="87" y="114" type="line" smooth="yes"/>
      <point x="87" y="30"/>
      <point x="138" y="-14"/>
      <point x="207" y="-14" type="curve" smooth="yes"/>
      <point x="273" y="-14"/>
      <point x="327" y="6"/>
      <point x="382" y="57" type="curve"/>
      <point x="382" y="55"/>
      <point x="382" y="53"/>
      <point x="382" y="51" type="curve" smooth="yes"/>
      <point x="382" y="34"/>
      <point x="377" y="2"/>
      <point x="377" y="-11" type="curve" smooth="yes"/>
      <point x="377" y="-16"/>
      <point x="379" y="-19"/>
    </contour>
  </outline>
</glyph>
<glyph name="w" format="1">
  <advance width="716"/>
  <unicode hex="0077"/>
  <outline>
    <contour>
      <point x="235" y="-23" type="curve" smooth="yes"/>
      <point x="240" y="-23"/>
      <point x="245" y="-20"/>
      <point x="248" y="-16" type="curve"/>
      <point x="359" y="236" type="line" smooth="yes"/>
      <point x="362" y="243"/>
      <point x="364" y="246"/>
      <point x="366" y="246" type="curve" smooth="yes"/>
      <point x="368" y="246"/>
      <point x="371" y="242"/>
      <point x="373" y="237" type="curve" smooth="yes"/>
      <point x="479" y="-16" type="line"/>
      <point x="482" y="-20"/>
      <point x="486" y="-23"/>
      <point x="490" y="-23" type="curve" smooth="yes"/>
      <point x="496" y="-23"/>
      <point x="500" y="-20"/>
      <point x="503" y="-16" type="curve"/>
      <point x="641" y="302" type="line" smooth="yes"/>
      <point x="654" y="332"/>
      <point x="678" y="357"/>
      <point x="698" y="364" type="curve"/>
      <point x="712" y="370"/>
      <point x="721" y="375"/>
      <point x="721" y="388" type="curve" smooth="yes"/>
      <point x="721" y="399"/>
      <point x="710" y="400"/>
      <point x="701" y="400" type="curve" smooth="yes"/>
      <point x="679" y="400"/>
      <point x="678" y="395"/>
      <point x="641" y="395" type="curve" smooth="yes"/>
      <point x="605" y="395"/>
      <point x="591" y="400"/>
      <point x="566" y="400" type="curve" smooth="yes"/>
      <point x="558" y="400"/>
      <point x="545" y="399"/>
      <point x="545" y="388" type="curve" smooth="yes"/>
      <point x="545" y="375"/>
      <point x="554" y="371"/>
      <point x="568" y="365" type="curve" smooth="yes"/>
      <point x="582" y="360"/>
      <point x="595" y="348"/>
      <point x="595" y="327" type="curve" smooth="yes"/>
      <point x="595" y="318"/>
      <point x="593" y="301"/>
      <point x="588" y="290" type="curve" smooth="yes"/>
      <point x="515" y="124" type="line" smooth="yes"/>
      <point x="512" y="117"/>
      <point x="510" y="114"/>
      <point x="507" y="114" type="curve" smooth="yes"/>
      <point x="505" y="114"/>
      <point x="501" y="118"/>
      <point x="498" y="125" type="curve" smooth="yes"/>
      <point x="430" y="291" type="line" smooth="yes"/>
      <point x="425" y="303"/>
      <point x="422" y="314"/>
      <point x="422" y="322" type="curve" smooth="yes"/>
      <point x="422" y="348"/>
      <point x="438" y="357"/>
      <point x="455" y="364" type="curve" smooth="yes"/>
      <point x="466" y="368"/>
      <point x="477" y="373"/>
      <point x="477" y="386" type="curve" smooth="yes"/>
      <point x="477" y="397"/>
      <point x="465" y="400"/>
      <point x="456" y="400" type="curve" smooth="yes"/>
      <point x="426" y="400"/>
      <point x="406" y="393"/>
      <point x="368" y="395" type="curve" smooth="yes"/>
      <point x="329" y="396"/>
      <point x="313" y="400"/>
      <point x="286" y="400" type="curve" smooth="yes"/>
      <point x="276" y="400"/>
      <point x="265" y="397"/>
      <point x="265" y="386" type="curve" smooth="yes"/>
      <point x="265" y="375"/>
      <point x="277" y="371"/>
      <point x="288" y="367" type="curve" smooth="yes"/>
      <point x="312" y="357"/>
      <point x="335" y="344"/>
      <point x="335" y="317" type="curve" smooth="yes"/>
      <point x="335" y="303"/>
      <point x="334" y="289"/>
      <point x="327" y="273" type="curve" smooth="yes"/>
      <point x="259" y="116" type="line" smooth="yes"/>
      <point x="258" y="113"/>
      <point x="256" y="112"/>
      <point x="254" y="112" type="curve" smooth="yes"/>
      <point x="252" y="112"/>
      <point x="250" y="113"/>
      <point x="249" y="116" type="curve" smooth="yes"/>
      <point x="175" y="299" type="line" smooth="yes"/>
      <point x="172" y="307"/>
      <point x="170" y="317"/>
      <point x="170" y="326" type="curve" smooth="yes"/>
      <point x="170" y="344"/>
      <point x="176" y="360"/>
      <point x="188" y="364" type="curve"/>
      <point x="199" y="369"/>
      <point x="210" y="375"/>
      <point x="210" y="388" type="curve" smooth="yes"/>
      <point x="210" y="399"/>
      <point x="195" y="400"/>
      <point x="189" y="400" type="curve" smooth="yes"/>
      <point x="156" y="400"/>
      <point x="137" y="395"/>
      <point x="105" y="395" type="curve" smooth="yes"/>
      <point x="74" y="395"/>
      <point x="60" y="400"/>
      <point x="28" y="400" type="curve" smooth="yes"/>
      <point x="21" y="400"/>
      <point x="7" y="399"/>
      <point x="7" y="388" type="curve" smooth="yes"/>
      <point x="7" y="375"/>
      <point x="18" y="372"/>
      <point x="31" y="367" type="curve"/>
      <point x="51" y="360"/>
      <point x="74" y="343"/>
      <point x="85" y="314" type="curve" smooth="yes"/>
      <point x="224" y="-16" type="line"/>
      <point x="225" y="-20"/>
      <point x="230" y="-23"/>
    </contour>
  </outline>
</glyph>
<glyph name="x" format="1">
  <advance width="448"/>
  <unicode hex="0078"/>
  <outline>
    <contour>
      <point x="31" y="-5" type="curve" smooth="yes"/>
      <point x="50" y="-5"/>
      <point x="61" y="1"/>
      <point x="100" y="1" type="curve" smooth="yes"/>
      <point x="117" y="1"/>
      <point x="143" y="-2"/>
      <point x="154" y="-2" type="curve" smooth="yes"/>
      <point x="159" y="-2"/>
      <point x="178" y="-1"/>
      <point x="178" y="13" type="curve" smooth="yes"/>
      <point x="178" y="26"/>
      <point x="167" y="30"/>
      <point x="156" y="34" type="curve"/>
      <point x="148" y="36"/>
      <point x="143" y="45"/>
      <point x="143" y="53" type="curve" smooth="yes"/>
      <point x="143" y="61"/>
      <point x="148" y="69"/>
      <point x="152" y="75" type="curve" smooth="yes"/>
      <point x="212" y="162" type="line" smooth="yes"/>
      <point x="214" y="164"/>
      <point x="218" y="164"/>
      <point x="219" y="162" type="curve" smooth="yes"/>
      <point x="274" y="76" type="line" smooth="yes"/>
      <point x="279" y="69"/>
      <point x="281" y="63"/>
      <point x="281" y="58" type="curve" smooth="yes"/>
      <point x="281" y="45"/>
      <point x="269" y="39"/>
      <point x="256" y="35" type="curve" smooth="yes"/>
      <point x="241" y="30"/>
      <point x="232" y="26"/>
      <point x="232" y="12" type="curve" smooth="yes"/>
      <point x="232" y="3"/>
      <point x="239" y="-2"/>
      <point x="255" y="-2" type="curve" smooth="yes"/>
      <point x="285" y="-2"/>
      <point x="306" y="2"/>
      <point x="335" y="2" type="curve" smooth="yes"/>
      <point x="383" y="2"/>
      <point x="380" y="-4"/>
      <point x="423" y="-4" type="curve" smooth="yes"/>
      <point x="433" y="-4"/>
      <point x="444" y="-1"/>
      <point x="444" y="10" type="curve" smooth="yes"/>
      <point x="444" y="23"/>
      <point x="433" y="28"/>
      <point x="419" y="32" type="curve" smooth="yes"/>
      <point x="397" y="39"/>
      <point x="380" y="47"/>
      <point x="363" y="74" type="curve" smooth="yes"/>
      <point x="274" y="212" type="line" smooth="yes"/>
      <point x="270" y="217"/>
      <point x="271" y="222"/>
      <point x="273" y="225" type="curve" smooth="yes"/>
      <point x="337" y="320" type="line" smooth="yes"/>
      <point x="357" y="348"/>
      <point x="388" y="361"/>
      <point x="406" y="367" type="curve"/>
      <point x="418" y="372"/>
      <point x="429" y="377"/>
      <point x="429" y="390" type="curve" smooth="yes"/>
      <point x="429" y="400"/>
      <point x="417" y="401"/>
      <point x="408" y="401" type="curve" smooth="yes"/>
      <point x="391" y="401"/>
      <point x="382" y="395"/>
      <point x="343" y="395" type="curve" smooth="yes"/>
      <point x="326" y="395"/>
      <point x="301" y="398"/>
      <point x="291" y="398" type="curve" smooth="yes"/>
      <point x="285" y="398"/>
      <point x="267" y="398"/>
      <point x="267" y="384" type="curve" smooth="yes"/>
      <point x="267" y="371"/>
      <point x="277" y="367"/>
      <point x="288" y="363" type="curve"/>
      <point x="297" y="360"/>
      <point x="301" y="354"/>
      <point x="301" y="347" type="curve" smooth="yes"/>
      <point x="301" y="340"/>
      <point x="296" y="332"/>
      <point x="290" y="324" type="curve"/>
      <point x="245" y="258" type="line" smooth="yes"/>
      <point x="242" y="254"/>
      <point x="239" y="253"/>
      <point x="236" y="258" type="curve" smooth="yes"/>
      <point x="194" y="319" type="line"/>
      <point x="186" y="330"/>
      <point x="182" y="340"/>
      <point x="182" y="346" type="curve" smooth="yes"/>
      <point x="182" y="357"/>
      <point x="193" y="361"/>
      <point x="203" y="364" type="curve" smooth="yes"/>
      <point x="214" y="368"/>
      <point x="223" y="372"/>
      <point x="223" y="384" type="curve" smooth="yes"/>
      <point x="223" y="396"/>
      <point x="207" y="398"/>
      <point x="199" y="398" type="curve" smooth="yes"/>
      <point x="169" y="398"/>
      <point x="164" y="393"/>
      <point x="135" y="393" type="curve" smooth="yes"/>
      <point x="88" y="393"/>
      <point x="92" y="399"/>
      <point x="50" y="399" type="curve" smooth="yes"/>
      <point x="42" y="399"/>
      <point x="27" y="398"/>
      <point x="27" y="386" type="curve" smooth="yes"/>
      <point x="27" y="373"/>
      <point x="38" y="367"/>
      <point x="52" y="363" type="curve" smooth="yes"/>
      <point x="74" y="356"/>
      <point x="88" y="348"/>
      <point x="105" y="321" type="curve" smooth="yes"/>
      <point x="180" y="212" type="line" smooth="yes"/>
      <point x="184" y="205"/>
      <point x="186" y="201"/>
      <point x="179" y="193" type="curve"/>
      <point x="100" y="82" type="line" smooth="yes"/>
      <point x="75" y="47"/>
      <point x="52" y="35"/>
      <point x="34" y="29" type="curve" smooth="yes"/>
      <point x="22" y="25"/>
      <point x="10" y="20"/>
      <point x="10" y="6" type="curve" smooth="yes"/>
      <point x="10" y="-4"/>
      <point x="23" y="-5"/>
    </contour>
  </outline>
</glyph>
<glyph name="y" format="1">
  <advance width="456"/>
  <unicode hex="0079"/>
  <outline>
    <contour>
      <point x="65" y="-317" type="curve" smooth="yes"/>
      <point x="96" y="-317"/>
      <point x="122" y="-303"/>
      <point x="134" y="-275" type="curve"/>
      <point x="375" y="301" type="line"/>
      <point x="389" y="333"/>
      <point x="418" y="357"/>
      <point x="438" y="364" type="curve"/>
      <point x="452" y="370"/>
      <point x="461" y="375"/>
      <point x="461" y="388" type="curve" smooth="yes"/>
      <point x="461" y="399"/>
      <point x="449" y="400"/>
      <point x="441" y="400" type="curve" smooth="yes"/>
      <point x="420" y="400"/>
      <point x="417" y="395"/>
      <point x="380" y="395" type="curve" smooth="yes"/>
      <point x="344" y="395"/>
      <point x="324" y="400"/>
      <point x="307" y="400" type="curve" smooth="yes"/>
      <point x="299" y="400"/>
      <point x="287" y="398"/>
      <point x="287" y="387" type="curve" smooth="yes"/>
      <point x="287" y="374"/>
      <point x="299" y="368"/>
      <point x="313" y="360" type="curve" smooth="yes"/>
      <point x="324" y="355"/>
      <point x="331" y="348"/>
      <point x="331" y="326" type="curve" smooth="yes"/>
      <point x="331" y="317"/>
      <point x="327" y="301"/>
      <point x="323" y="291" type="curve"/>
      <point x="252" y="114" type="line" smooth="yes"/>
      <point x="251" y="111"/>
      <point x="249" y="109"/>
      <point x="248" y="109" type="curve" smooth="yes"/>
      <point x="246" y="109"/>
      <point x="244" y="111"/>
      <point x="243" y="114" type="curve" smooth="yes"/>
      <point x="166" y="300" type="line" smooth="yes"/>
      <point x="162" y="307"/>
      <point x="159" y="319"/>
      <point x="159" y="327" type="curve" smooth="yes"/>
      <point x="159" y="345"/>
      <point x="165" y="356"/>
      <point x="178" y="361" type="curve" smooth="yes"/>
      <point x="188" y="365"/>
      <point x="204" y="373"/>
      <point x="204" y="387" type="curve" smooth="yes"/>
      <point x="204" y="397"/>
      <point x="191" y="400"/>
      <point x="183" y="400" type="curve" smooth="yes"/>
      <point x="141" y="400"/>
      <point x="140" y="395"/>
      <point x="103" y="395" type="curve" smooth="yes"/>
      <point x="66" y="395"/>
      <point x="68" y="400"/>
      <point x="26" y="400" type="curve" smooth="yes"/>
      <point x="19" y="400"/>
      <point x="5" y="399"/>
      <point x="5" y="388" type="curve" smooth="yes"/>
      <point x="5" y="375"/>
      <point x="15" y="372"/>
      <point x="29" y="367" type="curve"/>
      <point x="49" y="360"/>
      <point x="67" y="342"/>
      <point x="79" y="314" type="curve" smooth="yes"/>
      <point x="199" y="29" type="line" smooth="yes"/>
      <point x="202" y="21"/>
      <point x="203" y="11"/>
      <point x="203" y="0" type="curve" smooth="yes"/>
      <point x="203" y="-9"/>
      <point x="202" y="-17"/>
      <point x="200" y="-23" type="curve"/>
      <point x="172" y="-99"/>
      <point x="131" y="-188"/>
      <point x="108" y="-223" type="curve" smooth="yes"/>
      <point x="103" y="-231"/>
      <point x="95" y="-234"/>
      <point x="87" y="-234" type="curve" smooth="yes"/>
      <point x="75" y="-234"/>
      <point x="61" y="-226"/>
      <point x="44" y="-226" type="curve" smooth="yes"/>
      <point x="21" y="-226"/>
      <point x="8" y="-247"/>
      <point x="8" y="-274" type="curve" smooth="yes"/>
      <point x="8" y="-304"/>
      <point x="37" y="-317"/>
    </contour>
  </outline>
</glyph>
<glyph name="z" format="1">
  <advance width="394"/>
  <unicode hex="007A"/>
  <outline>
    <contour>
      <point x="41" y="-5" type="curve" smooth="yes"/>
      <point x="59" y="-5"/>
      <point x="94" y="0"/>
      <point x="124" y="0" type="curve" smooth="yes"/>
      <point x="239" y="0"/>
      <point x="314" y="-5"/>
      <point x="344" y="-5" type="curve" smooth="yes"/>
      <point x="353" y="-5"/>
      <point x="359" y="0"/>
      <point x="361" y="9" type="curve" smooth="yes"/>
      <point x="366" y="25"/>
      <point x="391" y="121"/>
      <point x="391" y="129" type="curve" smooth="yes"/>
      <point x="391" y="144"/>
      <point x="372" y="147"/>
      <point x="364" y="136" type="curve" smooth="yes"/>
      <point x="345" y="108"/>
      <point x="327" y="82"/>
      <point x="311" y="66" type="curve" smooth="yes"/>
      <point x="297" y="50"/>
      <point x="281" y="43"/>
      <point x="265" y="43" type="curve" smooth="yes"/>
      <point x="150" y="43" type="line" smooth="yes"/>
      <point x="141" y="43"/>
      <point x="135" y="48"/>
      <point x="141" y="58" type="curve" smooth="yes"/>
      <point x="333" y="331" type="line" smooth="yes"/>
      <point x="347" y="351"/>
      <point x="360" y="364"/>
      <point x="375" y="381" type="curve"/>
      <point x="379" y="387"/>
      <point x="373" y="400"/>
      <point x="364" y="400" type="curve" smooth="yes"/>
      <point x="303" y="398"/>
      <point x="244" y="397"/>
      <point x="171" y="397" type="curve" smooth="yes"/>
      <point x="162" y="397"/>
      <point x="147" y="396"/>
      <point x="131" y="396" type="curve" smooth="yes"/>
      <point x="112" y="396"/>
      <point x="92" y="397"/>
      <point x="86" y="402" type="curve" smooth="yes"/>
      <point x="80" y="407"/>
      <point x="73" y="411"/>
      <point x="70" y="411" type="curve" smooth="yes"/>
      <point x="66" y="411"/>
      <point x="55" y="403"/>
      <point x="55" y="393" type="curve" smooth="yes"/>
      <point x="55" y="368"/>
      <point x="40" y="312"/>
      <point x="34" y="294" type="curve" smooth="yes"/>
      <point x="28" y="278"/>
      <point x="52" y="272"/>
      <point x="64" y="284" type="curve" smooth="yes"/>
      <point x="78" y="300"/>
      <point x="92" y="324"/>
      <point x="107" y="338" type="curve" smooth="yes"/>
      <point x="115" y="346"/>
      <point x="132" y="357"/>
      <point x="150" y="356" type="curve" smooth="yes"/>
      <point x="245" y="353" type="line" smooth="yes"/>
      <point x="261" y="353"/>
      <point x="258" y="347"/>
      <point x="255" y="343" type="curve"/>
      <point x="186" y="242"/>
      <point x="131" y="165"/>
      <point x="65" y="76" type="curve" smooth="yes"/>
      <point x="49" y="55"/>
      <point x="24" y="21"/>
      <point x="24" y="17" type="curve" smooth="yes"/>
      <point x="24" y="9"/>
      <point x="33" y="-5"/>
    </contour>
  </outline>
</glyph>
<glyph name="asciitilde" format="1">
  <advance width="512"/>
  <unicode hex="007E"/>
  <outline>
    <contour>
      <point x="345" y="253" type="curve" smooth="yes"/>
      <point x="396" y="253"/>
      <point x="461" y="314"/>
      <point x="461" y="355" type="curve" smooth="yes"/>
      <point x="461" y="372"/>
      <point x="446" y="381"/>
      <point x="441" y="381" type="curve" smooth="yes"/>
      <point x="436" y="381"/>
      <point x="391" y="318"/>
      <point x="345" y="318" type="curve" smooth="yes"/>
      <point x="318" y="318"/>
      <point x="292" y="333"/>
      <point x="265" y="349" type="curve" smooth="yes"/>
      <point x="239" y="364"/>
      <point x="210" y="380"/>
      <point x="175" y="380" type="curve" smooth="yes"/>
      <point x="104" y="380"/>
      <point x="51" y="305"/>
      <point x="51" y="278" type="curve" smooth="yes"/>
      <point x="51" y="268"/>
      <point x="63" y="258"/>
      <point x="71" y="258" type="curve" smooth="yes"/>
      <point x="76" y="258"/>
      <point x="113" y="313"/>
      <point x="164" y="313" type="curve" smooth="yes"/>
      <point x="194" y="313"/>
      <point x="221" y="300"/>
      <point x="249" y="285" type="curve" smooth="yes"/>
      <point x="279" y="269"/>
      <point x="309" y="253"/>
    </contour>
  </outline>
</glyph>
